<svg width="38" height="38" viewBox="0 0 38 38" fill="none" xmlns="http://www.w3.org/2000/svg">
<path d="M9.56909 28.3133C9.56909 28.376 9.56909 28.4292 9.64509 28.4368C9.71978 28.4406 9.79461 28.4406 9.86929 28.4368C15.1323 28.4368 20.3946 28.4368 25.6563 28.4368C26.2795 28.4368 26.7811 28.2468 27.0756 27.6768C27.2808 27.2816 27.3207 26.8332 27.4176 26.4076C28.0003 23.8565 28.5773 21.3035 29.1485 18.7487C29.2739 18.1787 29.405 17.6201 29.5285 17.052C29.6786 16.3262 29.2853 15.8417 28.5386 15.8379C27.6209 15.8379 26.7032 15.8379 25.7874 15.8379C25.7209 15.8379 25.6563 15.8379 25.5974 15.8379L23.8172 15.8512C23.4524 15.9766 23.1693 16.1837 23.08 16.5846C23.0304 16.7448 22.9936 16.9087 22.9698 17.0748C22.9508 17.3598 22.8197 17.4339 22.5404 17.432C19.5251 17.4206 16.5098 17.432 13.4964 17.432C12.5046 17.432 11.9764 17.8766 11.7636 18.838C11.6929 19.2694 11.5855 19.694 11.4425 20.1072C11.442 20.2103 11.4337 20.3131 11.4178 20.415C11.2639 21.0952 11.1024 21.7735 10.9466 22.4537C10.673 23.6602 10.4127 24.8705 10.1296 26.0751C9.93199 26.8199 9.81039 27.5818 9.56909 28.3133Z" fill="#5C5787"/>
<path d="M23.7942 15.8548L25.5745 15.8415C25.5745 14.362 25.5745 12.8825 25.5745 11.4031C25.5745 10.7343 25.223 10.2213 24.6587 10.0408C24.5508 10.0098 24.4385 9.99628 24.3262 10.0009C20.4414 10.0009 16.5565 10.0009 12.6717 10.0009C12.5075 9.99963 12.3447 10.0308 12.1927 10.0927C12.0406 10.1545 11.9022 10.2458 11.7855 10.3612C11.6688 10.4767 11.5761 10.6141 11.5126 10.7655C11.4492 10.9169 11.4163 11.0793 11.4158 11.2435C11.4158 12.7787 11.4158 14.3139 11.4158 15.8491H23.6802C23.7201 15.8415 23.7562 15.8548 23.7942 15.8548ZM18.4857 13.9339C18.2885 13.9383 18.0927 13.9014 17.9107 13.8255C17.7287 13.7496 17.5647 13.6363 17.4293 13.4931C17.3932 13.4662 17.3633 13.4318 17.3417 13.3924C17.3201 13.3529 17.3072 13.3092 17.304 13.2643C17.3007 13.2195 17.3072 13.1744 17.3229 13.1322C17.3386 13.0901 17.3632 13.0518 17.3951 13.02C17.5357 12.8623 17.701 12.8851 17.8663 13.02C18.3204 13.3753 18.6624 13.3791 19.0994 13.02C19.2703 12.8832 19.4356 12.8471 19.5914 13.02C19.7472 13.1929 19.6769 13.362 19.5249 13.5083C19.3901 13.6465 19.2282 13.7557 19.0494 13.8289C18.8707 13.9021 18.6788 13.9378 18.4857 13.9339ZM15.9682 12.963C15.9682 13.0485 15.9682 13.1321 15.9682 13.2157C15.969 13.2583 15.9615 13.3008 15.946 13.3405C15.9305 13.3803 15.9073 13.4166 15.8777 13.4474C15.8481 13.4781 15.8128 13.5028 15.7737 13.5199C15.7347 13.5371 15.6926 13.5463 15.6499 13.5472C15.6072 13.5481 15.5648 13.5406 15.5251 13.525C15.4853 13.5095 15.449 13.4863 15.4182 13.4568C15.3874 13.4272 15.3628 13.3919 15.3456 13.3528C15.3285 13.3137 15.3192 13.2716 15.3184 13.229C15.3117 13.1081 15.3117 12.9869 15.3184 12.8661C15.3184 12.5564 15.4267 12.4044 15.6395 12.4006C15.8523 12.3968 15.972 12.5545 15.9739 12.8794C15.9701 12.9079 15.9682 12.9364 15.9682 12.963ZM21.0183 12.9801C21.0183 12.906 21.0183 12.8319 21.0183 12.7578C21.0183 12.5526 21.1114 12.412 21.328 12.4044C21.5446 12.3968 21.6453 12.5374 21.6586 12.7388C21.6691 12.8963 21.6691 13.0543 21.6586 13.2119C21.6453 13.4133 21.5484 13.5577 21.3299 13.5539C21.1114 13.5501 21.0183 13.4133 21.0164 13.2043C21.0164 13.1302 21.0183 13.0561 21.0183 12.9801V12.9801Z" fill="#CDC4FF"/>
<path d="M9.56925 28.3128C9.81815 27.5813 9.93975 26.8194 10.1145 26.0689C10.3976 24.8643 10.6579 23.654 10.9315 22.4475C11.0873 21.7673 11.2488 21.089 11.4027 20.4088C11.4187 20.307 11.4269 20.2041 11.4274 20.101V16.1737C10.6123 16.1737 9.79915 16.1585 8.98595 16.1737C8.8402 16.1738 8.69626 16.2061 8.5645 16.2684C8.43274 16.3307 8.31643 16.4215 8.22394 16.5341C8.13146 16.6468 8.06509 16.7785 8.02963 16.9199C7.99417 17.0613 7.99049 17.2088 8.01885 17.3517C8.33552 19.6001 8.64902 21.849 8.95935 24.0986C9.14682 25.44 9.33682 26.7814 9.52935 28.1228C9.52555 28.1874 9.54645 28.2501 9.56925 28.3128Z" fill="#3E3C5E"/>
<path d="M11.4141 16.1744V20.1017C11.5571 19.6886 11.6645 19.2639 11.7352 18.8325C11.9537 17.8711 12.4762 17.4265 13.468 17.4265C16.4813 17.4265 19.4966 17.4265 22.5119 17.4265C22.7912 17.4265 22.9223 17.3543 22.9413 17.0693C22.9651 16.9033 23.002 16.7394 23.0515 16.5791C23.1408 16.1782 23.4315 15.9711 23.7887 15.8457C23.7507 15.8457 23.7146 15.8457 23.6766 15.8457L11.4179 15.8552C11.416 15.9559 11.4141 16.0642 11.4141 16.1744Z" fill="#AB9DFF"/>
<path d="M18.4857 13.9316C18.6781 13.9376 18.8697 13.9039 19.0485 13.8326C19.2273 13.7614 19.3895 13.654 19.525 13.5174C19.677 13.3711 19.7511 13.2096 19.5915 13.0291C19.4319 12.8486 19.2704 12.8885 19.0994 13.0291C18.6624 13.3787 18.3204 13.3749 17.8663 13.0291C17.701 12.898 17.5357 12.8752 17.3951 13.0291C17.3633 13.0609 17.3387 13.0992 17.323 13.1413C17.3072 13.1835 17.3008 13.2286 17.304 13.2734C17.3073 13.3183 17.3202 13.362 17.3418 13.4015C17.3634 13.4409 17.3933 13.4753 17.4293 13.5022C17.5655 13.6438 17.7299 13.7551 17.9119 13.8291C18.0939 13.9031 18.2894 13.938 18.4857 13.9316V13.9316Z" fill="#3E3C5E"/>
<path d="M15.9683 12.9629C15.9683 12.9363 15.9683 12.9078 15.9683 12.8793C15.9683 12.5544 15.8562 12.3948 15.6339 12.4005C15.4116 12.4062 15.3147 12.5563 15.3128 12.866C15.3062 12.9869 15.3062 13.1081 15.3128 13.2289C15.3146 13.3151 15.3505 13.397 15.4127 13.4567C15.4749 13.5164 15.5582 13.5489 15.6444 13.5472C15.7306 13.5454 15.8125 13.5095 15.8722 13.4473C15.9319 13.3851 15.9644 13.3018 15.9626 13.2156C15.9626 13.132 15.9626 13.0484 15.9626 12.9629H15.9683Z" fill="#3E3C5E"/>
<path d="M21.0185 12.9803C21.0185 13.0563 21.0185 13.1304 21.0185 13.2045C21.0185 13.4135 21.1192 13.5484 21.332 13.5541C21.5448 13.5598 21.6474 13.4135 21.6607 13.2121C21.6712 13.0546 21.6712 12.8965 21.6607 12.739C21.6474 12.5376 21.5486 12.397 21.3301 12.4046C21.1116 12.4122 21.0223 12.5528 21.0204 12.758C21.0166 12.8321 21.0185 12.9062 21.0185 12.9803Z" fill="#3E3C5E"/>
</svg>
