<svg width="38" height="38" viewBox="0 0 38 38" fill="none" xmlns="http://www.w3.org/2000/svg">
<path d="M27.2338 20.0986C27.2233 20.1627 27.2093 20.2261 27.192 20.2886C27.2148 20.2297 27.2243 20.1613 27.2338 20.0986Z" fill="#F1F0FF"/>
<path d="M27.1825 20.3359C27.1733 20.4011 27.1561 20.465 27.1312 20.5259C27.1546 20.4646 27.1712 20.4009 27.1806 20.3359H27.1825Z" fill="#F1F0FF"/>
<path d="M27.1806 20.3356C27.1712 20.4006 27.1546 20.4643 27.1312 20.5256C27.1561 20.4647 27.1733 20.4008 27.1825 20.3356C27.1825 20.3204 27.1825 20.3052 27.1825 20.29L27.1806 20.3356Z" fill="#F1F0FF"/>
<path d="M11.9314 28.4527C11.4374 28.4527 10.9434 28.4527 10.4494 28.4527C10.389 28.4558 10.3287 28.4461 10.2724 28.4242C10.2161 28.4023 10.1651 28.3686 10.1227 28.3255C10.0803 28.2825 10.0476 28.2309 10.0266 28.1742C10.0056 28.1175 9.99688 28.057 10.001 27.9967C10.001 27.9473 10.001 27.8998 10.001 27.8523V10.5966C10.001 10.1273 10.1283 10 10.5995 10H13.2595C13.2595 11.254 13.2595 12.5086 13.2595 13.7639C13.2595 14.3339 13.573 14.6512 14.1525 14.6512H19.007C19.0811 14.6512 19.159 14.674 19.2255 14.6227C19.2925 14.6362 19.3605 14.6451 19.4288 14.6493H22.693C22.8988 14.6639 23.1055 14.6594 23.3104 14.636L23.3504 14.617C23.5124 14.5854 23.6583 14.4979 23.7625 14.3698C23.8666 14.2416 23.9225 14.081 23.9203 13.9159C23.9203 12.6125 23.9203 11.311 23.9203 10.0076H24.6233C24.7227 10.0803 24.8093 10.1689 24.8798 10.2698C25.3415 11.0298 25.8013 11.7898 26.2763 12.5498C26.4644 12.8308 26.5643 13.1616 26.5632 13.4998C26.5544 18.2903 26.5544 23.0789 26.5632 27.8656C26.5749 27.9807 26.554 28.0968 26.503 28.2006C26.4519 28.3044 26.3727 28.3918 26.2744 28.4527H25.2826C25.2826 26.8555 25.2826 25.2582 25.2826 23.661C25.2826 22.711 25.2826 21.7401 25.2826 20.7806C25.2826 20.3303 25.047 20.0928 24.6024 20.0928H24.2129H24.0894H12.5375C12.4565 20.0903 12.3759 20.1046 12.3007 20.135C12.2256 20.1654 12.1576 20.2111 12.1012 20.2692C12.0447 20.3273 12.0009 20.3965 11.9727 20.4724C11.9444 20.5484 11.9323 20.6294 11.9371 20.7103C11.9371 21.5273 11.9371 22.3424 11.9371 23.1594L11.9314 28.4527Z" fill="#3E3C5E"/>
<path d="M12.7977 28.4527C12.3018 28.4527 11.8078 28.4527 11.3138 28.4527C11.2534 28.4558 11.1931 28.4461 11.1368 28.4242C11.0805 28.4023 11.0294 28.3686 10.9871 28.3255C10.9447 28.2825 10.9119 28.2309 10.891 28.1742C10.87 28.1175 10.8613 28.057 10.8654 27.9967V10.5966C10.8654 10.1273 10.9946 10 11.4639 10H14.1239C14.1239 11.254 14.1239 12.5086 14.1239 13.7639C14.1239 14.3339 14.4355 14.6512 15.015 14.6512H19.8694C19.9435 14.6512 20.0214 14.674 20.0898 14.6227C20.1563 14.6362 20.2236 14.6451 20.2912 14.6493H23.5535C23.7593 14.6639 23.966 14.6594 24.171 14.636L24.2128 14.617C24.3747 14.5851 24.5204 14.4975 24.6245 14.3694C24.7286 14.2414 24.7846 14.0809 24.7828 13.9159C24.7828 12.6125 24.7828 11.311 24.7828 10.0076H25.5048C25.6031 10.0809 25.6891 10.1694 25.7594 10.2698C26.2211 11.0298 26.6828 11.7898 27.1578 12.5498C27.3453 12.8311 27.4451 13.1617 27.4447 13.4998C27.4333 18.2903 27.4333 23.0789 27.4447 27.8656C27.456 27.9809 27.4347 28.097 27.3833 28.2008C27.332 28.3046 27.2525 28.3918 27.154 28.4527H26.1641C26.1641 26.8555 26.1641 25.2582 26.1641 23.661C26.1641 22.711 26.1641 21.7401 26.1641 20.7806C26.1641 20.3303 25.9266 20.0928 25.4839 20.0928H25.0925H24.969H13.4019C13.321 20.0902 13.2404 20.1046 13.1654 20.135C13.0903 20.1654 13.0225 20.2111 12.9661 20.2692C12.9098 20.3274 12.8662 20.3966 12.8382 20.4726C12.8102 20.5485 12.7983 20.6295 12.8034 20.7103C12.8034 21.5273 12.8034 22.3436 12.8034 23.1594C12.8008 24.9238 12.7989 26.6883 12.7977 28.4527Z" fill="#5C5787"/>
<path d="M26.1527 28.453V23.1596C26.1527 22.3426 26.1527 21.5276 26.1527 20.7106C26.1574 20.6297 26.1453 20.5487 26.1171 20.4727C26.0888 20.3968 26.0451 20.3275 25.9886 20.2694C25.9321 20.2114 25.8641 20.1657 25.789 20.1353C25.7139 20.1049 25.6332 20.0905 25.5523 20.0931H13.9946H13.8711C13.5348 20.3895 13.5348 20.7847 13.5348 21.1799C13.5348 23.603 13.5348 26.0261 13.5348 28.4492H26.0444L26.1527 28.453ZM19.5027 25.3674H14.6596C14.5964 25.3734 14.5328 25.3734 14.4696 25.3674C14.394 25.3674 14.3215 25.3374 14.2681 25.284C14.2146 25.2305 14.1846 25.158 14.1846 25.0824C14.1846 25.0069 14.2146 24.9344 14.2681 24.8809C14.3215 24.8275 14.394 24.7974 14.4696 24.7974C14.5246 24.7926 14.5799 24.7926 14.6349 24.7974H24.3078C24.3901 24.7937 24.4726 24.8014 24.5529 24.8202C24.617 24.8344 24.6729 24.8732 24.7085 24.9284C24.7441 24.9835 24.7564 25.0505 24.7429 25.1147C24.7432 25.1777 24.72 25.2385 24.6778 25.2852C24.6356 25.332 24.5775 25.3613 24.5149 25.3674C24.4516 25.3725 24.3881 25.3725 24.3249 25.3674H19.5027ZM19.4818 23.1843H24.1539C24.2717 23.1843 24.3876 23.1843 24.5035 23.1843C24.56 23.1829 24.6152 23.201 24.6599 23.2357C24.7045 23.2703 24.7359 23.3193 24.7486 23.3743C24.7663 23.4339 24.7642 23.4976 24.7426 23.5558C24.721 23.6141 24.6811 23.6637 24.6289 23.6973C24.5458 23.7466 24.4496 23.7691 24.3534 23.7619C21.1208 23.7619 17.8908 23.7619 14.6634 23.7619C14.5675 23.766 14.4718 23.7505 14.3822 23.7163C14.3456 23.7016 14.3129 23.6787 14.2864 23.6495C14.26 23.6202 14.2405 23.5853 14.2296 23.5474C14.2186 23.5095 14.2164 23.4697 14.223 23.4308C14.2297 23.3919 14.2452 23.3551 14.2682 23.323C14.3034 23.2727 14.3518 23.2331 14.4082 23.2086C14.4645 23.1841 14.5266 23.1757 14.5874 23.1843H19.4818ZM19.5027 26.9729H14.6368C14.5479 26.9846 14.4575 26.9728 14.3746 26.9387C14.3267 26.9184 14.2857 26.8846 14.2567 26.8415C14.2277 26.7983 14.2119 26.7476 14.2112 26.6955C14.2109 26.644 14.2257 26.5936 14.2537 26.5504C14.2817 26.5072 14.3218 26.4731 14.3689 26.4523C14.457 26.4144 14.5522 26.3956 14.6482 26.3972H24.3382C24.3862 26.3924 24.4345 26.3924 24.4826 26.3972C24.5266 26.4043 24.5686 26.4206 24.6057 26.4453C24.6429 26.4699 24.6743 26.5022 24.6979 26.54C24.7215 26.5779 24.7367 26.6203 24.7425 26.6645C24.7483 26.7087 24.7445 26.7536 24.7315 26.7962C24.665 26.9577 24.5187 26.9672 24.3667 26.9672L19.5027 26.9729ZM19.5217 22.1146H14.633C14.5779 22.1146 14.5228 22.1146 14.4677 22.1146C14.405 22.1101 14.3458 22.0842 14.2998 22.0414C14.2539 21.9985 14.2239 21.9413 14.215 21.8791C14.1865 21.7594 14.2701 21.6758 14.3708 21.6169C14.4591 21.5779 14.5565 21.5647 14.652 21.5789H24.342C24.4051 21.5718 24.4688 21.5718 24.532 21.5789C24.5683 21.5809 24.6037 21.5909 24.6357 21.6082C24.6677 21.6254 24.6956 21.6494 24.7173 21.6786C24.7391 21.7078 24.7541 21.7413 24.7615 21.7769C24.7689 21.8126 24.7683 21.8494 24.76 21.8847C24.7315 22.0747 24.6004 22.1108 24.4313 22.1108C22.7871 22.1121 21.1481 22.1134 19.5141 22.1146H19.5217Z" fill="#CDC4FF"/>
<path d="M20.0937 14.6227C20.0253 14.674 19.9474 14.6512 19.8733 14.6512H15.0188C14.4488 14.6512 14.1296 14.3434 14.1277 13.7639C14.1277 12.5074 14.1277 11.2527 14.1277 10H19.5313V13.8C19.518 14.2408 19.6757 14.4612 20.0937 14.6227Z" fill="#3E3C5E"/>
<path d="M24.2205 14.6228C24.6385 14.4613 24.7905 14.2428 24.7905 13.8039C24.7905 12.5372 24.7905 11.2706 24.7905 10.0039H20.2628C20.2628 11.2522 20.2628 12.5024 20.2628 13.7507C20.2456 13.9147 20.2783 14.08 20.3566 14.2251C20.4349 14.3702 20.5552 14.4883 20.7017 14.5639C20.7176 14.5705 20.7312 14.5815 20.741 14.5957C20.7508 14.6098 20.7563 14.6265 20.7568 14.6437H24.0191C24.0866 14.6413 24.1539 14.6343 24.2205 14.6228V14.6228ZM22.2426 13.4942C22.0526 13.4942 21.8455 13.4942 21.6479 13.4942C21.6169 13.4984 21.5854 13.4956 21.5558 13.4858C21.5261 13.476 21.4991 13.4596 21.4767 13.4378C21.4544 13.416 21.4373 13.3894 21.4268 13.36C21.4163 13.3306 21.4126 13.2991 21.4161 13.2681C21.4161 12.6316 21.4161 11.997 21.4161 11.3681C21.4161 11.2142 21.5016 11.1458 21.6479 11.1458H22.2008H22.653C22.6869 11.1395 22.7219 11.1415 22.755 11.1516C22.788 11.1617 22.8181 11.1797 22.8427 11.2039C22.8674 11.2282 22.8858 11.258 22.8964 11.2909C22.907 11.3238 22.9095 11.3587 22.9038 11.3928C22.9038 12.0084 22.9038 12.624 22.9038 13.2396C22.9096 13.2742 22.9073 13.3096 22.8971 13.3432C22.8868 13.3767 22.8689 13.4074 22.8448 13.4329C22.8207 13.4583 22.7909 13.4778 22.758 13.4897C22.725 13.5017 22.6897 13.5058 22.6549 13.5018C22.5162 13.5018 22.3794 13.4961 22.2426 13.4942V13.4942Z" fill="#CDC4FF"/>
<path d="M13.5349 28.4548C13.5349 26.0329 13.5349 23.6098 13.5349 21.1854C13.5349 20.7845 13.5349 20.3893 13.8674 20.0967H13.4874C13.0429 20.0967 12.8073 20.3342 12.8073 20.7845C12.8073 21.7345 12.8073 22.7054 12.8073 23.6649C12.8073 25.2634 12.8073 26.8607 12.8073 28.4567L13.5349 28.4548Z" fill="#AB9DFF"/>
<path d="M20.7548 14.6476C20.7543 14.6304 20.7488 14.6137 20.7391 14.5996C20.7293 14.5854 20.7156 14.5744 20.6997 14.5678C20.5532 14.4922 20.4329 14.3741 20.3546 14.229C20.2763 14.0839 20.2436 13.9186 20.2608 13.7546C20.2608 12.5063 20.2608 11.2561 20.2608 10.0078H19.5198C19.5198 11.3112 19.5198 12.6127 19.5198 13.9161C19.5177 14.0812 19.5736 14.2419 19.6777 14.37C19.7819 14.4981 19.9277 14.5856 20.0898 14.6172L20.1297 14.6362C20.3373 14.6595 20.5466 14.6633 20.7548 14.6476Z" fill="#AB9DFF"/>
<path d="M24.1749 14.6347L24.2177 14.6152L24.1749 14.6347Z" fill="#596C76"/>
<path d="M19.4953 25.3597H24.3327C24.3959 25.3648 24.4595 25.3648 24.5227 25.3597C24.5853 25.3536 24.6434 25.3243 24.6856 25.2775C24.7278 25.2308 24.751 25.17 24.7507 25.107C24.7642 25.0428 24.7519 24.9758 24.7163 24.9207C24.6807 24.8655 24.6248 24.8267 24.5607 24.8125C24.4804 24.7937 24.3979 24.786 24.3156 24.7897H14.6351C14.5801 24.7849 14.5248 24.7849 14.4698 24.7897C14.3942 24.7897 14.3217 24.8198 14.2683 24.8732C14.2148 24.9267 14.1848 24.9991 14.1848 25.0747C14.1848 25.1503 14.2148 25.2228 14.2683 25.2763C14.3217 25.3297 14.3942 25.3597 14.4698 25.3597C14.533 25.3657 14.5966 25.3657 14.6598 25.3597H19.4953Z" fill="#5C5787"/>
<path d="M19.4744 23.1838H14.5762C14.5154 23.1752 14.4534 23.1835 14.3971 23.208C14.3407 23.2325 14.2922 23.2721 14.257 23.3225C14.234 23.3545 14.2186 23.3913 14.2119 23.4302C14.2052 23.4691 14.2074 23.509 14.2184 23.5468C14.2294 23.5847 14.2488 23.6196 14.2753 23.6489C14.3017 23.6781 14.3345 23.701 14.371 23.7158C14.4607 23.75 14.5564 23.7655 14.6522 23.7614C17.8848 23.7614 21.1148 23.7614 24.3422 23.7614C24.4385 23.7686 24.5347 23.746 24.6177 23.6968C24.6699 23.6632 24.7099 23.6135 24.7314 23.5552C24.753 23.497 24.7551 23.4333 24.7374 23.3738C24.7247 23.3187 24.6934 23.2697 24.6487 23.2351C24.6041 23.2005 24.5488 23.1823 24.4923 23.1838C24.3764 23.1724 24.2605 23.1838 24.1427 23.1838H19.4744Z" fill="#5C5787"/>
<path d="M19.4953 26.973H24.3649C24.5169 26.973 24.6632 26.9635 24.7297 26.802C24.7428 26.7594 24.7466 26.7145 24.7408 26.6703C24.735 26.6261 24.7198 26.5836 24.6962 26.5458C24.6726 26.508 24.6412 26.4757 24.604 26.451C24.5669 26.4264 24.5249 26.41 24.4808 26.403C24.4328 26.3982 24.3845 26.3982 24.3364 26.403H14.6465C14.5505 26.4014 14.4553 26.4202 14.3672 26.4581C14.32 26.4789 14.28 26.5129 14.252 26.5562C14.224 26.5994 14.2092 26.6498 14.2095 26.7013C14.2102 26.7533 14.226 26.8041 14.255 26.8472C14.284 26.8904 14.325 26.9242 14.3729 26.9445C14.4558 26.9786 14.5462 26.9903 14.6351 26.9787L19.4953 26.973Z" fill="#5C5787"/>
<path d="M19.5142 22.1147C21.1482 22.1147 22.7822 22.1147 24.4162 22.1147C24.5853 22.1147 24.7164 22.0824 24.7449 21.8886C24.7533 21.8532 24.7538 21.8164 24.7465 21.7808C24.7391 21.7451 24.724 21.7116 24.7023 21.6824C24.6806 21.6532 24.6527 21.6292 24.6207 21.612C24.5886 21.5947 24.5532 21.5847 24.5169 21.5827C24.4538 21.5756 24.39 21.5756 24.3269 21.5827H14.6369C14.5415 21.5685 14.444 21.5817 14.3557 21.6207C14.255 21.6796 14.1657 21.7632 14.1999 21.8829C14.2089 21.9451 14.2388 22.0023 14.2848 22.0452C14.3307 22.088 14.39 22.1139 14.4526 22.1185C14.5077 22.1185 14.5628 22.1185 14.6179 22.1185L19.5142 22.1147Z" fill="#5C5787"/>
<path d="M22.1969 11.1533H21.644C21.4958 11.1533 21.4122 11.2217 21.4122 11.3756C21.4122 12.0121 21.4122 12.6467 21.4122 13.2756C21.4094 13.3067 21.4136 13.3379 21.4245 13.3672C21.4354 13.3964 21.4526 13.4228 21.4751 13.4445C21.4975 13.4662 21.5244 13.4826 21.554 13.4925C21.5836 13.5024 21.615 13.5055 21.6459 13.5017C21.8359 13.5017 22.0411 13.5017 22.2406 13.5017C22.1708 13.3762 22.1409 13.2323 22.1551 13.0894C22.1551 12.5612 22.1551 12.033 22.1551 11.5048C22.151 11.3862 22.1651 11.2677 22.1969 11.1533V11.1533Z" fill="#3E3C5E"/>
<path d="M22.197 11.1537C22.1659 11.2656 22.1518 11.3815 22.1552 11.4976C22.1552 12.0258 22.1552 12.554 22.1552 13.0822C22.141 13.2251 22.1708 13.3689 22.2407 13.4945C22.3756 13.4945 22.5124 13.4945 22.6492 13.4945C22.6836 13.4983 22.7185 13.4942 22.7512 13.4825C22.7838 13.4707 22.8133 13.4516 22.8373 13.4266C22.8614 13.4017 22.8794 13.3715 22.8899 13.3384C22.9005 13.3054 22.9032 13.2704 22.8981 13.2361C22.8981 12.6205 22.8981 12.0049 22.8981 11.3893C22.9038 11.3552 22.9013 11.3202 22.8907 11.2874C22.8801 11.2545 22.8617 11.2246 22.837 11.2004C22.8124 11.1762 22.7823 11.1582 22.7493 11.1481C22.7162 11.138 22.6812 11.136 22.6473 11.1423L22.197 11.1537Z" fill="#5C5787"/>
</svg>
