<svg width="38" height="38" viewBox="0 0 38 38" fill="none" xmlns="http://www.w3.org/2000/svg">
<path d="M13.4136 10.0085C13.7936 9.95535 14.0843 10.1605 14.3636 10.3467C17.3504 12.2645 20.3353 14.1866 23.3182 16.1132C24.2682 16.7231 25.2182 17.3273 26.1549 17.9448C26.4191 18.1003 26.6206 18.3432 26.7247 18.6315C26.8288 18.9198 26.8289 19.2354 26.7249 19.5237C26.6202 19.5576 26.5185 19.6002 26.4209 19.651C25.1992 20.4224 23.9756 21.1919 22.7615 21.9728C20.4341 23.47 18.1142 24.9786 15.7886 26.4758C15.5565 26.6573 15.2829 26.7781 14.9925 26.8273C14.0596 26.8976 13.4193 26.2896 13.4193 25.3301C13.4155 20.2229 13.4136 15.1157 13.4136 10.0085Z" fill="#5C5787"/>
<path d="M13.4136 10.0088C13.4136 15.116 13.4136 20.2232 13.4136 25.3303C13.4136 26.2803 14.0539 26.8978 14.9868 26.8275C15.2819 26.7805 15.5603 26.6596 15.7962 26.476C18.1218 24.9788 20.4417 23.4703 22.7692 21.9731C23.9833 21.1922 25.2069 20.4227 26.4286 19.6513C26.5262 19.6004 26.6278 19.5578 26.7326 19.524C26.6794 19.904 26.4229 20.1263 26.1379 20.3277C25.8529 20.5291 25.5888 20.6944 25.3133 20.8787C25.2582 20.9072 25.2012 20.9319 25.1499 20.9642L14.3731 27.901C14.1366 28.0821 13.8582 28.2004 13.5637 28.2449C12.6498 28.3171 12.0133 27.6939 12.0133 26.7116C12.0133 22.0592 12.0133 17.4061 12.0133 12.7524C12.0133 12.3059 12.0133 11.8594 12 11.4129C12.1007 10.5123 12.608 10.0088 13.4136 10.0088Z" fill="#3E3C5E"/>
</svg>
