<svg width="36" height="37" viewBox="0 0 36 37" fill="none" xmlns="http://www.w3.org/2000/svg">
<rect x="5.5127" y="10.9736" width="24.6684" height="15.7048" rx="4.89783" fill="#5C5787"/>
<path d="M19.8181 10.9736H25.2833C27.9883 10.9736 30.1811 13.1665 30.1811 15.8715V21.7806C30.1811 24.4855 27.9883 26.6784 25.2833 26.6784H19.8181V10.9736Z" fill="#3E3C5E"/>
<path d="M18.1729 10.9736H23.638C26.343 10.9736 28.5358 13.1665 28.5358 15.8715V21.7806C28.5358 24.4855 26.343 26.6784 23.638 26.6784H18.1729V10.9736Z" fill="#5C5787"/>
<path d="M17.0728 20.9116L17.0728 20.9117C17.0709 21.1751 17.0712 21.4185 17.0728 21.6557L17.0728 20.9116ZM17.0728 20.9116C17.0749 20.5825 16.9909 20.2983 16.813 20.0498M17.0728 20.9116L16.813 20.0498M17.0723 18.247V18.2472V18.247ZM17.0723 18.247C17.0723 18.0205 17.1125 17.8868 17.1857 17.8008C17.2587 17.7149 17.3829 17.6547 17.6037 17.62L17.6037 17.62M17.0723 18.247L17.6037 17.62M17.6037 17.62C17.7216 17.6014 17.8239 17.5503 17.8934 17.4654C17.9635 17.3798 17.991 17.2707 17.9784 17.155L17.9784 17.155M17.6037 17.62L17.9784 17.155M17.9784 17.155L17.9783 17.1542M17.9784 17.155L17.9783 17.1542M17.9783 17.1542C17.9656 17.0446 17.9168 16.9494 17.8358 16.8825C17.7556 16.8161 17.6519 16.7841 17.5396 16.7841L17.5366 16.7841L17.5359 16.7841M17.9783 17.1542L17.5359 16.7841M17.5359 16.7841C16.9192 16.7877 16.335 17.3004 16.2558 17.9113C16.226 18.1361 16.2292 18.3617 16.2322 18.5695L16.2323 18.576L16.2323 18.576M17.5359 16.7841L16.2323 18.576M16.2323 18.576C16.2339 18.689 16.2355 18.8033 16.2323 18.9135L16.2323 18.9135M16.2323 18.576L16.2323 18.9135M16.2323 18.9135V18.9168M16.2323 18.9135V18.9168M16.2323 18.9168V18.9169V18.917V18.9171V18.9172V18.9173V18.9175V18.9176V18.9177V18.9178V18.9179V18.918V18.9181V18.9182V18.9183V18.9184V18.9185V18.9186V18.9188V18.9189V18.919V18.9191V18.9192V18.9193V18.9194V18.9195V18.9196V18.9197V18.9198V18.9199V18.9201V18.9202V18.9203V18.9204V18.9205V18.9206V18.9207V18.9208V18.9209V18.921V18.9211V18.9212V18.9213V18.9215V18.9216V18.9217V18.9218V18.9219V18.922V18.9221V18.9222V18.9223V18.9224V18.9225V18.9226V18.9228V18.9229V18.923V18.9231V18.9232V18.9233V18.9234V18.9235V18.9236V18.9237V18.9238V18.9239V18.924V18.9242V18.9243V18.9244V18.9245V18.9246V18.9247V18.9248V18.9249V18.925V18.9251V18.9252V18.9253V18.9255V18.9256V18.9257V18.9258V18.9259V18.926V18.9261V18.9262V18.9263V18.9264V18.9265V18.9266V18.9267V18.9269V18.927V18.9271V18.9272V18.9273V18.9274V18.9275V18.9276V18.9277V18.9278V18.9279V18.928V18.9281V18.9283V18.9284V18.9285V18.9286V18.9287V18.9288V18.9289V18.929V18.9291V18.9292V18.9293V18.9294V18.9295V18.9297V18.9298V18.9299V18.93V18.9301V18.9302V18.9303V18.9304V18.9305V18.9306V18.9307V18.9308V18.9309V18.931V18.9312V18.9313V18.9314V18.9315V18.9316V18.9317V18.9318V18.9319V18.932V18.9321V18.9322V18.9323V18.9324V18.9326V18.9327V18.9328V18.9329V18.933V18.9331V18.9332V18.9333V18.9334V18.9335V18.9336V18.9337V18.9338V18.9339V18.9341V18.9342V18.9343V18.9344V18.9345V18.9346V18.9347V18.9348V18.9349V18.935V18.9351V18.9352V18.9353V18.9354V18.9356V18.9357V18.9358V18.9359V18.936V18.9361V18.9362V18.9363V18.9364V18.9365V18.9366V18.9367V18.9368V18.9369V18.9371V18.9372V18.9373V18.9374V18.9375V18.9376V18.9377V18.9378V18.9379V18.938V18.9381V18.9382V18.9383V18.9384V18.9385V18.9387V18.9388V18.9389V18.939V18.9391V18.9392V18.9393V18.9394V18.9395V18.9396V18.9397V18.9398V18.9399V18.94V18.9402V18.9403V18.9404V18.9405V18.9406V18.9407V18.9408V18.9409V18.941V18.9411V18.9412V18.9413V18.9414V18.9415V18.9416V18.9418V18.9419V18.942V18.9421V18.9422V18.9423V18.9424V18.9425V18.9426V18.9427V18.9428V18.9429V18.943V18.9431V18.9432V18.9433V18.9435V18.9436V18.9437V18.9438V18.9439V18.944V18.9441V18.9442V18.9443V18.9444V18.9445V18.9446V18.9447V18.9448V18.9449V18.9451V18.9452V18.9453V18.9454V18.9455V18.9456V18.9457V18.9458V18.9459V18.946V18.9461V18.9462V18.9463V18.9464V18.9465V18.9466V18.9467V18.9469V18.947V18.9471V18.9472V18.9473V18.9474V18.9475V18.9476V18.9477V18.9478V18.9479V18.948V18.9481V18.9482V18.9483V18.9484V18.9486V18.9487V18.9488V18.9489V18.949V18.9491V18.9492V18.9493V18.9494V18.9495V18.9496V18.9497V18.9498V18.9499V18.95V18.9501V18.9502V18.9504V18.9505V18.9506V18.9507V18.9508V18.9509V18.951V18.9511V18.9512V18.9513V18.9514V18.9515V18.9516V18.9517V18.9518V18.9519V18.952V18.9522V18.9523V18.9524V18.9525V18.9526V18.9527V18.9528V18.9529V18.953V18.9531V18.9532V18.9533V18.9534V18.9535V18.9536V18.9537V18.9538V18.9539V18.9541V18.9542V18.9543V18.9544V18.9545V18.9546V18.9547V18.9548V18.9549V18.955V18.9551V18.9552V18.9553V18.9554V18.9555V18.9556V18.9557V18.9558V18.9559V18.9561V18.9562V18.9563V18.9564V18.9565V18.9566V18.9567V18.9568V18.9569V18.957V18.9571V18.9572V18.9573V18.9574V18.9575V18.9576V18.9577V18.9578V18.9579V18.9581V18.9582V18.9583V18.9584V18.9585V18.9586V18.9587V18.9588V18.9589V18.959V18.9591V18.9592V18.9593V18.9594V18.9595V18.9596V18.9597V18.9598V18.9599V18.96V18.9601V18.9603V18.9604V18.9605V18.9606V18.9607V18.9608V18.9609V18.961V18.9611V18.9612V18.9613V18.9614V18.9615V18.9616V18.9617V18.9618V18.9619V18.962V18.9621V18.9622V18.9623V18.9625V18.9626V18.9627V18.9628V18.9629V18.963V18.9631V18.9632V18.9633V18.9634V18.9635V18.9636V18.9637V18.9638V18.9639V18.964V18.9641V18.9642V18.9643V18.9644V18.9645V18.9646V18.9648V18.9649V18.965V18.9651V18.9652V18.9653V18.9654V18.9655V18.9656V18.9657V18.9658V18.9659V18.966V18.9661V18.9662V18.9663V18.9664V18.9665V18.9666V18.9667V18.9668V18.9669V18.967V18.9671V18.9673V18.9674V18.9675V18.9676V18.9677V18.9678V18.9679V18.968V18.9681V18.9682V18.9683V18.9684V18.9685V18.9686V18.9687V18.9688V18.9689V18.969V18.9691V18.9692V18.9693V18.9694V18.9695V18.9696V18.9697V18.9698V18.97V18.9701V18.9702V18.9703V18.9704V18.9705V18.9706V18.9707V18.9708V18.9709V18.971V18.9711V18.9712H16.2322M16.2323 18.9168L16.2322 18.9712M16.2322 18.9712L16.2323 18.9747M16.2322 18.9712L16.2323 18.9747M16.2323 18.9747C16.2338 19.022 16.2297 19.0693 16.2201 19.1157C16.1888 19.2315 16.1326 19.3196 16.0581 19.3818C15.9828 19.4447 15.8827 19.4863 15.7565 19.4989L15.7563 19.4989M16.2323 18.9747L15.7563 19.4989M15.7563 19.4989C15.5872 19.5159 15.4325 19.6026 15.3606 19.7502L15.3606 19.7502L15.3601 19.7512C15.3305 19.8137 15.3176 19.8829 15.3228 19.9518C15.328 20.0201 15.3507 20.086 15.3887 20.1429M15.7563 19.4989L15.3887 20.1429M15.3887 20.1429C15.5003 20.3192 15.6903 20.3374 15.7588 20.3439C15.7604 20.344 15.7618 20.3442 15.7633 20.3443C16.0432 20.3715 16.2227 20.5629 16.232 20.8404C16.2347 20.9312 16.2339 21.0258 16.232 21.1182L16.232 21.1182V21.1205V21.1208V21.1211V21.1213V21.1216V21.1218V21.1221V21.1224V21.1226V21.1229V21.1232V21.1234V21.1237V21.1239V21.1242V21.1245V21.1247V21.125V21.1252V21.1255V21.1258V21.126V21.1263V21.1265V21.1268V21.1271V21.1273V21.1276V21.1279V21.1281V21.1284V21.1286V21.1289V21.1292V21.1294V21.1297V21.1299V21.1302V21.1305V21.1307V21.131V21.1312V21.1315V21.1318V21.132V21.1323V21.1326V21.1328V21.1331V21.1333V21.1336V21.1339V21.1341V21.1344V21.1346V21.1349V21.1352V21.1354V21.1357V21.1359V21.1362V21.1365V21.1367V21.137V21.1373V21.1375V21.1378V21.138V21.1383V21.1386V21.1388V21.1391V21.1393V21.1396V21.1399V21.1401V21.1404V21.1406V21.1409V21.1412V21.1414V21.1417V21.1419V21.1422V21.1425V21.1427V21.143V21.1433V21.1435V21.1438V21.144V21.1443V21.1446V21.1448V21.1451V21.1453V21.1456V21.1459V21.1461V21.1464V21.1466V21.1469V21.1472V21.1474V21.1477V21.1479V21.1482V21.1485V21.1487V21.149V21.1493V21.1495V21.1498V21.15V21.1503V21.1506V21.1508V21.1511V21.1513V21.1516V21.1519V21.1521V21.1524V21.1526V21.1529V21.1532V21.1534V21.1537V21.1539V21.1542V21.1545V21.1547V21.155V21.1553V21.1555V21.1558V21.156V21.1563V21.1566V21.1568V21.1571V21.1573V21.1576V21.1579V21.1581V21.1584V21.1586V21.1589V21.1592V21.1594V21.1597V21.1599V21.1602V21.1605V21.1607V21.161V21.1612V21.1615V21.1618V21.162V21.1623V21.1626V21.1628V21.1631V21.1633V21.1636V21.1639V21.1641V21.1644V21.1646V21.1649V21.1652V21.1654V21.1657V21.1659V21.1662V21.1665V21.1667V21.167V21.1672V21.1675V21.1678V21.168V21.1683V21.1685V21.1688V21.1691V21.1693V21.1696V21.1698V21.1701V21.1704V21.1706V21.1709V21.1712V21.1714V21.1717V21.1719V21.1722V21.1725V21.1727V21.173V21.1732V21.1735V21.1738V21.174V21.1743V21.1745V21.1748V21.1751V21.1753V21.1756V21.1758V21.1761V21.1764V21.1766V21.1769V21.1771V21.1774V21.1777V21.1779V21.1782V21.1784V21.1787V21.179V21.1792V21.1795V21.1797V21.18V21.1803V21.1805V21.1808V21.1811V21.1813V21.1816V21.1818V21.1821V21.1824V21.1826V21.1829V21.1831V21.1834V21.1837V21.1839V21.1842V21.1844V21.1847V21.185V21.1852V21.1855V21.1857V21.186V21.1863V21.1865V21.1868V21.187V21.1873V21.1876V21.1878V21.1881V21.1883V21.1886V21.1889V21.1891V21.1894V21.1897V21.1899V21.1902V21.1904V21.1907V21.191V21.1912V21.1915V21.1917V21.192V21.1923V21.1925V21.1928V21.193V21.1933V21.1936V21.1938V21.1941V21.1943V21.1946V21.1949V21.1951V21.1954V21.1956V21.1959V21.1962V21.1964V21.1967V21.1969V21.1972V21.1975V21.1977V21.198V21.1982V21.1985V21.1988V21.199V21.1993V21.1996V21.1998V21.2001V21.2003V21.2006V21.2009V21.2011V21.2014V21.2016V21.2019V21.2022V21.2024V21.2027V21.2029V21.2032V21.2035V21.2037V21.204V21.2042V21.2045V21.2048V21.205V21.2053V21.2055V21.2058V21.2061V21.2063V21.2066V21.2068V21.2071V21.2074V21.2076V21.2079V21.2082V21.2084V21.2087V21.2089V21.2092V21.2095V21.2097V21.21V21.2102V21.2105V21.2108V21.211V21.2113V21.2115V21.2118V21.2121V21.2123V21.2126V21.2128V21.2131V21.2134V21.2136V21.2139V21.2141V21.2144V21.2147V21.2149V21.2152V21.2154V21.2157V21.216V21.2162V21.2165V21.2168V21.217V21.2173V21.2175V21.2178V21.2181V21.2183V21.2186V21.2188V21.2191V21.2194V21.2196V21.2199V21.2201V21.2204V21.2207V21.2209V21.2212V21.2214V21.2217V21.222V21.2222V21.2225V21.2228V21.223V21.2233V21.2235V21.2238V21.2241V21.2243V21.2246V21.2248V21.2251V21.2254V21.2256V21.2259V21.2261V21.2264V21.2267V21.2269V21.2272V21.2274V21.2277V21.228V21.2282V21.2285V21.2287V21.229V21.2293V21.2295V21.2298V21.2301V21.2303V21.2306V21.2308V21.2311V21.2314V21.2316V21.2319V21.2321V21.2324V21.2327V21.2329V21.2332V21.2334V21.2337V21.234V21.2342V21.2345V21.2347V21.235V21.2353V21.2355V21.2358V21.2361V21.2363V21.2366V21.2368V21.2371V21.2374V21.2376V21.2379V21.2381V21.2384V21.2387V21.2389V21.2392V21.2394V21.2397V21.24V21.2402V21.2405V21.2408V21.241V21.2413V21.2415V21.2418V21.2421V21.2423V21.2426V21.2428V21.2431V21.2434V21.2436V21.2439V21.2441V21.2444V21.2447V21.2449V21.2452V21.2455V21.2457V21.246V21.2462V21.2465V21.2468V21.247V21.2473V21.2475V21.2478V21.2481V21.2483V21.2486V21.2488V21.2491V21.2494V21.2496V21.2499V21.2502V21.2504V21.2507V21.2509V21.2512V21.2515V21.2517V21.252V21.2522V21.2525V21.2528V21.253V21.2533V21.2536V21.2538V21.2541V21.3503V21.3504V21.3505V21.3506V21.3507V21.3508V21.3509V21.351V21.351V21.3511V21.3512V21.3513V21.3514V21.3515V21.3516V21.3516V21.3517V21.3518V21.3519V21.352V21.3521V21.3522V21.3522V21.3523V21.3524V21.3525V21.3526V21.3527V21.3528V21.3528V21.3529V21.353V21.3531V21.3532V21.3533V21.3534V21.3534V21.3535V21.3536V21.3537V21.3538V21.3539V21.354V21.354V21.3541V21.3542V21.3543V21.3544V21.3545V21.3546V21.3547V21.3547V21.3548V21.3549V21.355V21.3551V21.3552V21.3553V21.3553V21.3554V21.3555V21.3556V21.3557V21.3558V21.3559V21.3559V21.356V21.3561V21.3562V21.3563V21.3564V21.3565V21.3565V21.3566V21.3567V21.3568V21.3569V21.357V21.3571V21.3571V21.3572V21.3573V21.3574V21.3575V21.3576V21.3577V21.3577V21.3578V21.3579V21.358V21.3581V21.3582V21.3583V21.3584V21.3584V21.3585V21.3586V21.3587V21.3588V21.3589V21.359V21.359V21.3591V21.3592V21.3593V21.3594V21.3595V21.3596V21.3596V21.3597V21.3598V21.3599V21.36V21.3601V21.3602V21.3602V21.3603V21.3604V21.3605V21.3606V21.3607V21.3608V21.3608V21.3609V21.361V21.3611V21.3612V21.3613V21.3614V21.3614V21.3615V21.3616V21.3617V21.3618V21.3619V21.362V21.3621V21.3621V21.3622V21.3623V21.3624V21.3625V21.3626V21.3627V21.3627V21.3628V21.3629V21.363V21.3631V21.3632V21.3633V21.3633V21.3634V21.3635V21.3636V21.3637V21.3638V21.3639V21.3639V21.364V21.3641V21.3642V21.3643V21.3644V21.3645V21.3645V21.3646V21.3647V21.3648V21.3649V21.365V21.3651V21.3651V21.3652V21.3653V21.3654V21.3655V21.3656V21.3657V21.3658V21.3658V21.3659V21.366V21.3661V21.3662V21.3663V21.3664V21.3664V21.3665V21.3666V21.3667V21.3668V21.3669V21.367V21.367V21.3671V21.3672V21.3673V21.3674V21.3675V21.3676V21.3676V21.3677V21.3678V21.3679V21.368V21.3681V21.3682V21.3682V21.3683V21.3684V21.3685V21.3686V21.3687V21.3688V21.3688V21.3689V21.369V21.3691V21.3692V21.3693V21.3694V21.3695V21.3695V21.3696V21.3697V21.3698V21.3699V21.37V21.3701V21.3701V21.3702V21.3703V21.3704V21.3705V21.3706V21.3707V21.3707V21.3708V21.3709V21.371V21.3711V21.3712V21.3713V21.3713V21.3714V21.3715V21.3716V21.3717V21.3718V21.3719V21.3719V21.372V21.3721V21.3722V21.3723V21.3724V21.3725V21.3726V21.3726V21.3727V21.3728V21.3729V21.373V21.3731V21.3732V21.3732V21.3733V21.3734V21.3735V21.3736V21.3737V21.3738V21.3738V21.3739V21.374V21.3741V21.3742V21.3743V21.3744V21.3744V21.3745V21.3746V21.3747V21.3748V21.3749V21.375V21.375V21.3751V21.3752V21.3753V21.3754V21.3755V21.3756V21.3756V21.3757V21.3758V21.3759V21.376V21.3761V21.3762V21.3763V21.3763V21.3764V21.3765V21.3766V21.3767V21.3768V21.3769V21.3769V21.377V21.3771V21.3772V21.3773V21.3774V21.3775V21.3775V21.3776V21.3777V21.3778V21.3779V21.378V21.3781V21.3781V21.3782V21.3783V21.3784V21.3785V21.3786V21.3787V21.3787V21.3788V21.3789V21.379V21.3791V21.3792V21.3793V21.3793V21.3794V21.3795V21.3796V21.3797V21.3798V21.3799V21.38V21.38V21.3801V21.3802V21.3803V21.3804V21.3805V21.3806V21.3806V21.3807V21.3808V21.3809V21.381V21.3811V21.3812V21.3812V21.3813V21.3814V21.3815V21.3816V21.3817V21.3818V21.3818V21.3819V21.382V21.3821V21.3822V21.3823V21.3824V21.3824V21.3825V21.3826V21.3827V21.3828V21.3829V21.383V21.383V21.3831V21.3832V21.3833V21.3834V21.3835V21.3836V21.3837V21.3837V21.3838V21.3839V21.384V21.3841V21.3842V21.3843V21.3843V21.3844V21.3845V21.3846V21.3847V21.3848V21.3849V21.3849V21.385V21.3851V21.3852V21.3853V21.3854V21.3855V21.3855V21.3856V21.3857V21.3858V21.3859V21.386V21.3861V21.3861V21.3862V21.3863V21.3864V21.3865V21.3866V21.3867V21.3867V21.3868V21.3869V21.387V21.3871V21.3872V21.3873V21.3874V21.3874V21.3875V21.3876V21.3877V21.3878V21.3879V21.388V21.388V21.3881V21.3882V21.3883V21.3884V21.3885V21.3886V21.3886V21.3887V21.3888V21.3889V21.389V21.3891V21.3892V21.3892V21.3893V21.3894V21.3895V21.3896V21.3897V21.3898V21.3898V21.3899V21.39V21.3901V21.3902V21.3903V21.3904V21.3904V21.3905V21.3906V21.3907V21.3908V21.3909V21.391V21.3911V21.3911V21.3912V21.3913V21.3914V21.3915V21.3916V21.3917V21.3917V21.3918V21.3919V21.392V21.3921V21.3922V21.3923V21.3923V21.3924V21.3925V21.3926V21.3927V21.3928V21.3929V21.3929V21.393V21.3931V21.3932V21.3933V21.3934V21.3935V21.3935V21.3936V21.3937V21.3938V21.3939V21.394V21.3941V21.3941V21.3942V21.3943V21.3944C16.232 21.4198 16.2319 21.4457 16.2318 21.4722L15.3887 20.1429ZM17.4842 23.0555L17.4842 23.0552C16.7672 22.9991 16.2529 22.4411 16.2334 21.7092C16.2334 21.7092 16.2334 21.7093 16.2334 21.7093L17.4842 23.0555ZM17.4842 23.0555H17.4931M17.4842 23.0555H17.4931M17.4931 23.0555C17.4963 23.0555 17.4998 23.0557 17.5071 23.0562L17.5079 23.0562C17.5144 23.0566 17.5241 23.0572 17.5349 23.0572C17.6673 23.0572 17.7769 23.0146 17.8556 22.9403C17.9334 22.8669 17.9736 22.7695 17.9811 22.6727L17.9811 22.6724M17.4931 23.0555L17.9811 22.6724M17.9811 22.6724C17.99 22.5546 17.9542 22.4459 17.8778 22.3634C17.8025 22.2821 17.6954 22.2342 17.5741 22.2198C17.3947 22.1985 17.2742 22.1384 17.1974 22.052M17.9811 22.6724L17.1974 22.052M17.1974 22.052C17.1204 21.9656 17.0742 21.8381 17.0728 21.6558L17.1974 22.052ZM16.813 20.0498C16.7491 19.9603 16.7432 19.9354 16.7434 19.9225C16.7435 19.9078 16.7518 19.8796 16.8178 19.7847C16.9774 19.5553 17.0609 19.3196 17.0652 19.0662L16.813 20.0498Z" fill="#F1F0FF" stroke="#F1F0FF" stroke-width="0.226751"/>
<circle cx="19.6234" cy="21.6234" r="0.623352" fill="#F1F0FF"/>
<circle cx="21.7816" cy="21.6234" r="0.623352" fill="#F1F0FF"/>
<circle cx="23.9395" cy="21.6234" r="0.623352" fill="#F1F0FF"/>
<path d="M25.7963 20.9116L25.7963 20.9117C25.7982 21.1751 25.7979 21.4185 25.7963 21.6557L25.7963 20.9116ZM25.7963 20.9116C25.7943 20.5825 25.8782 20.2983 26.0562 20.0498M25.7963 20.9116L26.0562 20.0498M25.7969 18.247V18.2472V18.247ZM25.7969 18.247C25.7969 18.0205 25.7566 17.8868 25.6834 17.8008C25.6104 17.7149 25.4862 17.6547 25.2655 17.62L25.2654 17.62M25.7969 18.247L25.2654 17.62M25.2654 17.62C25.1476 17.6014 25.0452 17.5503 24.9758 17.4654C24.9057 17.3798 24.8782 17.2707 24.8908 17.155L24.8908 17.155M25.2654 17.62L24.8908 17.155M24.8908 17.155L24.8909 17.1542M24.8908 17.155L24.8909 17.1542M24.8909 17.1542C24.9036 17.0446 24.9523 16.9494 25.0333 16.8825C25.1136 16.8161 25.2173 16.7841 25.3296 16.7841L25.3326 16.7841L25.3332 16.7841M24.8909 17.1542L25.3332 16.7841M25.3332 16.7841C25.95 16.7877 26.5341 17.3004 26.6134 17.9113C26.6431 18.1361 26.6399 18.3617 26.637 18.5695L26.6369 18.576L26.6369 18.576M25.3332 16.7841L26.6369 18.576M26.6369 18.576C26.6352 18.689 26.6337 18.8033 26.6368 18.9135L26.6369 18.9135M26.6369 18.576L26.6369 18.9135M26.6369 18.9135V18.9168M26.6369 18.9135V18.9168M26.6369 18.9168V18.9169V18.917V18.9171V18.9172V18.9173V18.9175V18.9176V18.9177V18.9178V18.9179V18.918V18.9181V18.9182V18.9183V18.9184V18.9185V18.9186V18.9188V18.9189V18.919V18.9191V18.9192V18.9193V18.9194V18.9195V18.9196V18.9197V18.9198V18.9199V18.9201V18.9202V18.9203V18.9204V18.9205V18.9206V18.9207V18.9208V18.9209V18.921V18.9211V18.9212V18.9213V18.9215V18.9216V18.9217V18.9218V18.9219V18.922V18.9221V18.9222V18.9223V18.9224V18.9225V18.9226V18.9228V18.9229V18.923V18.9231V18.9232V18.9233V18.9234V18.9235V18.9236V18.9237V18.9238V18.9239V18.924V18.9242V18.9243V18.9244V18.9245V18.9246V18.9247V18.9248V18.9249V18.925V18.9251V18.9252V18.9253V18.9255V18.9256V18.9257V18.9258V18.9259V18.926V18.9261V18.9262V18.9263V18.9264V18.9265V18.9266V18.9267V18.9269V18.927V18.9271V18.9272V18.9273V18.9274V18.9275V18.9276V18.9277V18.9278V18.9279V18.928V18.9281V18.9283V18.9284V18.9285V18.9286V18.9287V18.9288V18.9289V18.929V18.9291V18.9292V18.9293V18.9294V18.9295V18.9297V18.9298V18.9299V18.93V18.9301V18.9302V18.9303V18.9304V18.9305V18.9306V18.9307V18.9308V18.9309V18.931V18.9312V18.9313V18.9314V18.9315V18.9316V18.9317V18.9318V18.9319V18.932V18.9321V18.9322V18.9323V18.9324V18.9326V18.9327V18.9328V18.9329V18.933V18.9331V18.9332V18.9333V18.9334V18.9335V18.9336V18.9337V18.9338V18.9339V18.9341V18.9342V18.9343V18.9344V18.9345V18.9346V18.9347V18.9348V18.9349V18.935V18.9351V18.9352V18.9353V18.9354V18.9356V18.9357V18.9358V18.9359V18.936V18.9361V18.9362V18.9363V18.9364V18.9365V18.9366V18.9367V18.9368V18.9369V18.9371V18.9372V18.9373V18.9374V18.9375V18.9376V18.9377V18.9378V18.9379V18.938V18.9381V18.9382V18.9383V18.9384V18.9385V18.9387V18.9388V18.9389V18.939V18.9391V18.9392V18.9393V18.9394V18.9395V18.9396V18.9397V18.9398V18.9399V18.94V18.9402V18.9403V18.9404V18.9405V18.9406V18.9407V18.9408V18.9409V18.941V18.9411V18.9412V18.9413V18.9414V18.9415V18.9416V18.9418V18.9419V18.942V18.9421V18.9422V18.9423V18.9424V18.9425V18.9426V18.9427V18.9428V18.9429V18.943V18.9431V18.9432V18.9433V18.9435V18.9436V18.9437V18.9438V18.9439V18.944V18.9441V18.9442V18.9443V18.9444V18.9445V18.9446V18.9447V18.9448V18.9449V18.9451V18.9452V18.9453V18.9454V18.9455V18.9456V18.9457V18.9458V18.9459V18.946V18.9461V18.9462V18.9463V18.9464V18.9465V18.9466V18.9467V18.9469V18.947V18.9471V18.9472V18.9473V18.9474V18.9475V18.9476V18.9477V18.9478V18.9479V18.948V18.9481V18.9482V18.9483V18.9484V18.9486V18.9487V18.9488V18.9489V18.949V18.9491V18.9492V18.9493V18.9494V18.9495V18.9496V18.9497V18.9498V18.9499V18.95V18.9501V18.9502V18.9504V18.9505V18.9506V18.9507V18.9508V18.9509V18.951V18.9511V18.9512V18.9513V18.9514V18.9515V18.9516V18.9517V18.9518V18.9519V18.952V18.9522V18.9523V18.9524V18.9525V18.9526V18.9527V18.9528V18.9529V18.953V18.9531V18.9532V18.9533V18.9534V18.9535V18.9536V18.9537V18.9538V18.9539V18.9541V18.9542V18.9543V18.9544V18.9545V18.9546V18.9547V18.9548V18.9549V18.955V18.9551V18.9552V18.9553V18.9554V18.9555V18.9556V18.9557V18.9558V18.9559V18.9561V18.9562V18.9563V18.9564V18.9565V18.9566V18.9567V18.9568V18.9569V18.957V18.9571V18.9572V18.9573V18.9574V18.9575V18.9576V18.9577V18.9578V18.9579V18.9581V18.9582V18.9583V18.9584V18.9585V18.9586V18.9587V18.9588V18.9589V18.959V18.9591V18.9592V18.9593V18.9594V18.9595V18.9596V18.9597V18.9598V18.9599V18.96V18.9601V18.9603V18.9604V18.9605V18.9606V18.9607V18.9608V18.9609V18.961V18.9611V18.9612V18.9613V18.9614V18.9615V18.9616V18.9617V18.9618V18.9619V18.962V18.9621V18.9622V18.9623V18.9625V18.9626V18.9627V18.9628V18.9629V18.963V18.9631V18.9632V18.9633V18.9634V18.9635V18.9636V18.9637V18.9638V18.9639V18.964V18.9641V18.9642V18.9643V18.9644V18.9645V18.9646V18.9648V18.9649V18.965V18.9651V18.9652V18.9653V18.9654V18.9655V18.9656V18.9657V18.9658V18.9659V18.966V18.9661V18.9662V18.9663V18.9664V18.9665V18.9666V18.9667V18.9668V18.9669V18.967V18.9671V18.9673V18.9674V18.9675V18.9676V18.9677V18.9678V18.9679V18.968V18.9681V18.9682V18.9683V18.9684V18.9685V18.9686V18.9687V18.9688V18.9689V18.969V18.9691V18.9692V18.9693V18.9694V18.9695V18.9696V18.9697V18.9698V18.97V18.9701V18.9702V18.9703V18.9704V18.9705V18.9706V18.9707V18.9708V18.9709V18.971V18.9711V18.9712H26.6369M26.6369 18.9168L26.6369 18.9712M26.6369 18.9712L26.6368 18.9747M26.6369 18.9712L26.6368 18.9747M26.6368 18.9747C26.6354 19.022 26.6395 19.0693 26.6491 19.1157C26.6804 19.2315 26.7366 19.3196 26.8111 19.3818C26.8864 19.4447 26.9864 19.4863 27.1126 19.4989L27.1128 19.4989M26.6368 18.9747L27.1128 19.4989M27.1128 19.4989C27.2819 19.5159 27.4366 19.6026 27.5085 19.7502L27.5085 19.7502L27.509 19.7512C27.5387 19.8137 27.5515 19.8829 27.5463 19.9518C27.5412 20.0201 27.5185 20.086 27.4804 20.1429M27.1128 19.4989L27.4804 20.1429M27.4804 20.1429C27.3689 20.3192 27.1788 20.3374 27.1103 20.3439C27.1088 20.344 27.1073 20.3442 27.1059 20.3443C26.826 20.3715 26.6464 20.5629 26.6371 20.8404C26.6345 20.9312 26.6352 21.0258 26.6371 21.1182L26.6372 21.1182V21.1205V21.1208V21.1211V21.1213V21.1216V21.1218V21.1221V21.1224V21.1226V21.1229V21.1232V21.1234V21.1237V21.1239V21.1242V21.1245V21.1247V21.125V21.1252V21.1255V21.1258V21.126V21.1263V21.1265V21.1268V21.1271V21.1273V21.1276V21.1279V21.1281V21.1284V21.1286V21.1289V21.1292V21.1294V21.1297V21.1299V21.1302V21.1305V21.1307V21.131V21.1312V21.1315V21.1318V21.132V21.1323V21.1326V21.1328V21.1331V21.1333V21.1336V21.1339V21.1341V21.1344V21.1346V21.1349V21.1352V21.1354V21.1357V21.1359V21.1362V21.1365V21.1367V21.137V21.1373V21.1375V21.1378V21.138V21.1383V21.1386V21.1388V21.1391V21.1393V21.1396V21.1399V21.1401V21.1404V21.1406V21.1409V21.1412V21.1414V21.1417V21.1419V21.1422V21.1425V21.1427V21.143V21.1433V21.1435V21.1438V21.144V21.1443V21.1446V21.1448V21.1451V21.1453V21.1456V21.1459V21.1461V21.1464V21.1466V21.1469V21.1472V21.1474V21.1477V21.1479V21.1482V21.1485V21.1487V21.149V21.1493V21.1495V21.1498V21.15V21.1503V21.1506V21.1508V21.1511V21.1513V21.1516V21.1519V21.1521V21.1524V21.1526V21.1529V21.1532V21.1534V21.1537V21.1539V21.1542V21.1545V21.1547V21.155V21.1553V21.1555V21.1558V21.156V21.1563V21.1566V21.1568V21.1571V21.1573V21.1576V21.1579V21.1581V21.1584V21.1586V21.1589V21.1592V21.1594V21.1597V21.1599V21.1602V21.1605V21.1607V21.161V21.1612V21.1615V21.1618V21.162V21.1623V21.1626V21.1628V21.1631V21.1633V21.1636V21.1639V21.1641V21.1644V21.1646V21.1649V21.1652V21.1654V21.1657V21.1659V21.1662V21.1665V21.1667V21.167V21.1672V21.1675V21.1678V21.168V21.1683V21.1685V21.1688V21.1691V21.1693V21.1696V21.1698V21.1701V21.1704V21.1706V21.1709V21.1712V21.1714V21.1717V21.1719V21.1722V21.1725V21.1727V21.173V21.1732V21.1735V21.1738V21.174V21.1743V21.1745V21.1748V21.1751V21.1753V21.1756V21.1758V21.1761V21.1764V21.1766V21.1769V21.1771V21.1774V21.1777V21.1779V21.1782V21.1784V21.1787V21.179V21.1792V21.1795V21.1797V21.18V21.1803V21.1805V21.1808V21.1811V21.1813V21.1816V21.1818V21.1821V21.1824V21.1826V21.1829V21.1831V21.1834V21.1837V21.1839V21.1842V21.1844V21.1847V21.185V21.1852V21.1855V21.1857V21.186V21.1863V21.1865V21.1868V21.187V21.1873V21.1876V21.1878V21.1881V21.1883V21.1886V21.1889V21.1891V21.1894V21.1897V21.1899V21.1902V21.1904V21.1907V21.191V21.1912V21.1915V21.1917V21.192V21.1923V21.1925V21.1928V21.193V21.1933V21.1936V21.1938V21.1941V21.1943V21.1946V21.1949V21.1951V21.1954V21.1956V21.1959V21.1962V21.1964V21.1967V21.1969V21.1972V21.1975V21.1977V21.198V21.1982V21.1985V21.1988V21.199V21.1993V21.1996V21.1998V21.2001V21.2003V21.2006V21.2009V21.2011V21.2014V21.2016V21.2019V21.2022V21.2024V21.2027V21.2029V21.2032V21.2035V21.2037V21.204V21.2042V21.2045V21.2048V21.205V21.2053V21.2055V21.2058V21.2061V21.2063V21.2066V21.2068V21.2071V21.2074V21.2076V21.2079V21.2082V21.2084V21.2087V21.2089V21.2092V21.2095V21.2097V21.21V21.2102V21.2105V21.2108V21.211V21.2113V21.2115V21.2118V21.2121V21.2123V21.2126V21.2128V21.2131V21.2134V21.2136V21.2139V21.2141V21.2144V21.2147V21.2149V21.2152V21.2154V21.2157V21.216V21.2162V21.2165V21.2168V21.217V21.2173V21.2175V21.2178V21.2181V21.2183V21.2186V21.2188V21.2191V21.2194V21.2196V21.2199V21.2201V21.2204V21.2207V21.2209V21.2212V21.2214V21.2217V21.222V21.2222V21.2225V21.2228V21.223V21.2233V21.2235V21.2238V21.2241V21.2243V21.2246V21.2248V21.2251V21.2254V21.2256V21.2259V21.2261V21.2264V21.2267V21.2269V21.2272V21.2274V21.2277V21.228V21.2282V21.2285V21.2287V21.229V21.2293V21.2295V21.2298V21.2301V21.2303V21.2306V21.2308V21.2311V21.2314V21.2316V21.2319V21.2321V21.2324V21.2327V21.2329V21.2332V21.2334V21.2337V21.234V21.2342V21.2345V21.2347V21.235V21.2353V21.2355V21.2358V21.2361V21.2363V21.2366V21.2368V21.2371V21.2374V21.2376V21.2379V21.2381V21.2384V21.2387V21.2389V21.2392V21.2394V21.2397V21.24V21.2402V21.2405V21.2408V21.241V21.2413V21.2415V21.2418V21.2421V21.2423V21.2426V21.2428V21.2431V21.2434V21.2436V21.2439V21.2441V21.2444V21.2447V21.2449V21.2452V21.2455V21.2457V21.246V21.2462V21.2465V21.2468V21.247V21.2473V21.2475V21.2478V21.2481V21.2483V21.2486V21.2488V21.2491V21.2494V21.2496V21.2499V21.2502V21.2504V21.2507V21.2509V21.2512V21.2515V21.2517V21.252V21.2522V21.2525V21.2528V21.253V21.2533V21.2536V21.2538V21.2541V21.3503V21.3504V21.3505V21.3506V21.3507V21.3508V21.3509V21.351V21.351V21.3511V21.3512V21.3513V21.3514V21.3515V21.3516V21.3516V21.3517V21.3518V21.3519V21.352V21.3521V21.3522V21.3522V21.3523V21.3524V21.3525V21.3526V21.3527V21.3528V21.3528V21.3529V21.353V21.3531V21.3532V21.3533V21.3534V21.3534V21.3535V21.3536V21.3537V21.3538V21.3539V21.354V21.354V21.3541V21.3542V21.3543V21.3544V21.3545V21.3546V21.3547V21.3547V21.3548V21.3549V21.355V21.3551V21.3552V21.3553V21.3553V21.3554V21.3555V21.3556V21.3557V21.3558V21.3559V21.3559V21.356V21.3561V21.3562V21.3563V21.3564V21.3565V21.3565V21.3566V21.3567V21.3568V21.3569V21.357V21.3571V21.3571V21.3572V21.3573V21.3574V21.3575V21.3576V21.3577V21.3577V21.3578V21.3579V21.358V21.3581V21.3582V21.3583V21.3584V21.3584V21.3585V21.3586V21.3587V21.3588V21.3589V21.359V21.359V21.3591V21.3592V21.3593V21.3594V21.3595V21.3596V21.3596V21.3597V21.3598V21.3599V21.36V21.3601V21.3602V21.3602V21.3603V21.3604V21.3605V21.3606V21.3607V21.3608V21.3608V21.3609V21.361V21.3611V21.3612V21.3613V21.3614V21.3614V21.3615V21.3616V21.3617V21.3618V21.3619V21.362V21.3621V21.3621V21.3622V21.3623V21.3624V21.3625V21.3626V21.3627V21.3627V21.3628V21.3629V21.363V21.3631V21.3632V21.3633V21.3633V21.3634V21.3635V21.3636V21.3637V21.3638V21.3639V21.3639V21.364V21.3641V21.3642V21.3643V21.3644V21.3645V21.3645V21.3646V21.3647V21.3648V21.3649V21.365V21.3651V21.3651V21.3652V21.3653V21.3654V21.3655V21.3656V21.3657V21.3658V21.3658V21.3659V21.366V21.3661V21.3662V21.3663V21.3664V21.3664V21.3665V21.3666V21.3667V21.3668V21.3669V21.367V21.367V21.3671V21.3672V21.3673V21.3674V21.3675V21.3676V21.3676V21.3677V21.3678V21.3679V21.368V21.3681V21.3682V21.3682V21.3683V21.3684V21.3685V21.3686V21.3687V21.3688V21.3688V21.3689V21.369V21.3691V21.3692V21.3693V21.3694V21.3695V21.3695V21.3696V21.3697V21.3698V21.3699V21.37V21.3701V21.3701V21.3702V21.3703V21.3704V21.3705V21.3706V21.3707V21.3707V21.3708V21.3709V21.371V21.3711V21.3712V21.3713V21.3713V21.3714V21.3715V21.3716V21.3717V21.3718V21.3719V21.3719V21.372V21.3721V21.3722V21.3723V21.3724V21.3725V21.3726V21.3726V21.3727V21.3728V21.3729V21.373V21.3731V21.3732V21.3732V21.3733V21.3734V21.3735V21.3736V21.3737V21.3738V21.3738V21.3739V21.374V21.3741V21.3742V21.3743V21.3744V21.3744V21.3745V21.3746V21.3747V21.3748V21.3749V21.375V21.375V21.3751V21.3752V21.3753V21.3754V21.3755V21.3756V21.3756V21.3757V21.3758V21.3759V21.376V21.3761V21.3762V21.3763V21.3763V21.3764V21.3765V21.3766V21.3767V21.3768V21.3769V21.3769V21.377V21.3771V21.3772V21.3773V21.3774V21.3775V21.3775V21.3776V21.3777V21.3778V21.3779V21.378V21.3781V21.3781V21.3782V21.3783V21.3784V21.3785V21.3786V21.3787V21.3787V21.3788V21.3789V21.379V21.3791V21.3792V21.3793V21.3793V21.3794V21.3795V21.3796V21.3797V21.3798V21.3799V21.38V21.38V21.3801V21.3802V21.3803V21.3804V21.3805V21.3806V21.3806V21.3807V21.3808V21.3809V21.381V21.3811V21.3812V21.3812V21.3813V21.3814V21.3815V21.3816V21.3817V21.3818V21.3818V21.3819V21.382V21.3821V21.3822V21.3823V21.3824V21.3824V21.3825V21.3826V21.3827V21.3828V21.3829V21.383V21.383V21.3831V21.3832V21.3833V21.3834V21.3835V21.3836V21.3837V21.3837V21.3838V21.3839V21.384V21.3841V21.3842V21.3843V21.3843V21.3844V21.3845V21.3846V21.3847V21.3848V21.3849V21.3849V21.385V21.3851V21.3852V21.3853V21.3854V21.3855V21.3855V21.3856V21.3857V21.3858V21.3859V21.386V21.3861V21.3861V21.3862V21.3863V21.3864V21.3865V21.3866V21.3867V21.3867V21.3868V21.3869V21.387V21.3871V21.3872V21.3873V21.3874V21.3874V21.3875V21.3876V21.3877V21.3878V21.3879V21.388V21.388V21.3881V21.3882V21.3883V21.3884V21.3885V21.3886V21.3886V21.3887V21.3888V21.3889V21.389V21.3891V21.3892V21.3892V21.3893V21.3894V21.3895V21.3896V21.3897V21.3898V21.3898V21.3899V21.39V21.3901V21.3902V21.3903V21.3904V21.3904V21.3905V21.3906V21.3907V21.3908V21.3909V21.391V21.3911V21.3911V21.3912V21.3913V21.3914V21.3915V21.3916V21.3917V21.3917V21.3918V21.3919V21.392V21.3921V21.3922V21.3923V21.3923V21.3924V21.3925V21.3926V21.3927V21.3928V21.3929V21.3929V21.393V21.3931V21.3932V21.3933V21.3934V21.3935V21.3935V21.3936V21.3937V21.3938V21.3939V21.394V21.3941V21.3941V21.3942V21.3943V21.3944C26.6372 21.4198 26.6373 21.4457 26.6374 21.4722L27.4804 20.1429ZM25.385 23.0555L25.3849 23.0552C26.1019 22.9991 26.6163 22.4411 26.6358 21.7092C26.6358 21.7092 26.6358 21.7093 26.6358 21.7093L25.385 23.0555ZM25.385 23.0555H25.3761M25.385 23.0555H25.3761M25.3761 23.0555C25.3728 23.0555 25.3693 23.0557 25.362 23.0562L25.3613 23.0562C25.3548 23.0566 25.345 23.0572 25.3342 23.0572C25.2018 23.0572 25.0923 23.0146 25.0135 22.9403C24.9358 22.8669 24.8955 22.7695 24.888 22.6727L24.888 22.6724M25.3761 23.0555L24.888 22.6724M24.888 22.6724C24.8791 22.5546 24.915 22.4459 24.9914 22.3634C25.0667 22.2821 25.1737 22.2342 25.295 22.2198C25.4745 22.1985 25.595 22.1384 25.6718 22.052M24.888 22.6724L25.6718 22.052M25.6718 22.052C25.7487 21.9656 25.7949 21.8381 25.7963 21.6558L25.6718 22.052ZM26.0562 20.0498C26.12 19.9603 26.1259 19.9354 26.1258 19.9225C26.1256 19.9078 26.1173 19.8796 26.0513 19.7847C25.8917 19.5553 25.8082 19.3196 25.8039 19.0662L26.0562 20.0498Z" fill="#F1F0FF" stroke="#F1F0FF" stroke-width="0.226751"/>
<path d="M13.1296 17.324V17.4154H13.221H13.9726C14.3487 17.4154 14.6457 17.7233 14.6457 18.0885C14.6457 18.4517 14.3507 18.7487 13.9726 18.7487H13.221H13.1296V18.8401V22.6239C13.1296 22.9881 12.8336 23.2841 12.4694 23.2841C12.1032 23.2841 11.7963 22.9861 11.7963 22.6239V18.8401V18.7487H11.7049H11.3291C10.9649 18.7487 10.6689 18.4527 10.6689 18.0885C10.6689 17.7223 10.9669 17.4154 11.3291 17.4154H11.7049H11.7963V17.324V16.5724C11.7963 16.488 11.8088 16.0123 12.0584 15.5256L12.0584 15.5256L12.0591 15.5242C12.4179 14.7941 13.0967 14.3961 13.9726 14.3961C14.3507 14.3961 14.6457 14.6931 14.6457 15.0563C14.6457 15.4334 14.3497 15.7294 13.9726 15.7294C13.7602 15.7294 13.6063 15.7705 13.4925 15.84C13.3793 15.909 13.3144 16.0008 13.2706 16.0873C13.1574 16.2736 13.1296 16.4966 13.1296 16.5724V17.324ZM10.1356 22.6239C10.1356 22.9861 9.82873 23.2841 9.46252 23.2841C9.09834 23.2841 8.80236 22.9881 8.80236 22.6239V18.0885C8.80236 17.7223 9.10036 17.4154 9.46252 17.4154C9.82669 17.4154 10.1356 17.7243 10.1356 18.0885V22.6239ZM9.46252 14.7849C9.82873 14.7849 10.1356 15.0829 10.1356 15.445C10.1356 15.8211 9.8277 16.1181 9.46252 16.1181C9.09936 16.1181 8.80236 15.8232 8.80236 15.445C8.80236 15.0808 9.09834 14.7849 9.46252 14.7849Z" fill="#F1F0FF" stroke="#5C5787" stroke-width="0.182846"/>
<circle cx="26.9188" cy="11.9847" r="3.65659" fill="#AB9DFF"/>
<circle cx="25.5182" cy="11.9847" r="3.65659" fill="#E7E2FF"/>
<path d="M27.8964 10.7655C27.9453 10.9535 27.8832 11.1028 27.7482 11.2366C27.067 11.9115 26.3872 12.5881 25.7088 13.2662C25.5818 13.3929 25.4555 13.5195 25.3332 13.6516C25.1867 13.8098 25.016 13.8622 24.8104 13.7892C24.6774 13.714 24.584 13.5943 24.4792 13.4887C24.0736 13.0831 23.6692 12.6761 23.2662 12.2677C23.085 12.0845 23.0754 11.8426 23.2467 11.6555C23.3494 11.5431 23.4579 11.4348 23.5701 11.3305C23.7601 11.1552 24.0054 11.1649 24.1946 11.3529C24.398 11.5552 24.5984 11.7603 24.8001 11.9643C24.8436 12.0082 24.8897 12.0495 24.9293 12.0966C24.9688 12.1438 24.9949 12.1385 25.037 12.0966C25.3733 11.758 25.711 11.4209 26.0502 11.0852C26.3163 10.8205 26.5826 10.556 26.849 10.2917C27.0438 10.098 27.2948 10.0998 27.49 10.2948C27.5753 10.3801 27.6591 10.467 27.7464 10.5502C27.8117 10.61 27.8629 10.6836 27.8964 10.7655Z" fill="#DC646F"/>
</svg>
