<svg width="36" height="37" viewBox="0 0 36 37" fill="none" xmlns="http://www.w3.org/2000/svg">
<path d="M9.90933 6.7894C10.3691 6.66523 10.8389 6.58133 11.302 6.47394L11.7954 6.36655C12.0303 6.32293 12.1712 6.45716 12.1309 6.70214C11.8535 8.12058 11.5783 9.54797 11.3054 10.9843C11.2597 11.2003 11.1307 11.3897 10.9463 11.5112C10.633 11.7133 10.2555 11.791 9.88783 11.7289C9.5202 11.6668 9.18909 11.4694 8.9596 11.1756C8.87211 11.0552 8.81574 10.9151 8.7955 10.7676C8.77526 10.6202 8.79178 10.47 8.8436 10.3305C8.89541 10.191 8.98091 10.0665 9.09249 9.96802C9.20407 9.86955 9.33826 9.80018 9.48312 9.7661C9.71215 9.68772 9.95682 9.66631 10.196 9.70373C10.4351 9.74116 10.6616 9.83628 10.8557 9.98088L10.943 10.0413C10.9799 10.0178 10.9765 9.98088 10.9799 9.95068C11.0973 9.3399 11.2148 8.72577 11.3356 8.11499C11.3591 8.00424 11.3356 7.98411 11.2282 8.01096C10.7315 8.12506 10.2214 8.23245 9.73817 8.34655C9.69876 8.3583 9.65678 8.3583 9.61736 8.34655L9.90933 6.7894Z" fill="#C44958"/>
<path d="M9.90925 6.78906L9.61728 8.32272C9.32196 8.41669 9.01657 8.4536 8.71789 8.53079C8.56016 8.57106 8.39908 8.60462 8.238 8.63146C8.19606 8.63387 8.15646 8.65161 8.12676 8.68131C8.09706 8.71102 8.07931 8.75061 8.07691 8.79255C7.9024 9.73556 7.70776 10.6752 7.54332 11.6216C7.51282 11.861 7.40131 12.0828 7.22732 12.2501C7.05332 12.4174 6.82733 12.5201 6.58688 12.5411C6.3209 12.5966 6.04456 12.5741 5.791 12.4765C5.53744 12.3789 5.3174 12.2102 5.15726 11.9907C5.07451 11.8836 5.01795 11.7585 4.99208 11.6256C4.96622 11.4927 4.97176 11.3556 5.00827 11.2252C5.04477 11.0948 5.11124 10.9748 5.20236 10.8746C5.29349 10.7745 5.40675 10.697 5.53312 10.6484C5.77458 10.5339 6.04288 10.4881 6.30865 10.5159C6.57442 10.5437 6.82741 10.6441 7.03993 10.8061C7.15403 10.8833 7.1641 10.8464 7.18424 10.7423C7.38895 9.66173 7.60037 8.58113 7.80173 7.50052C7.80845 7.42546 7.84025 7.35484 7.892 7.30006C7.94374 7.24527 8.01242 7.20949 8.08698 7.19849L9.90925 6.78906Z" fill="#DC646F"/>
<path d="M28.5909 14.087L27.4432 10.0599C27.413 9.95246 27.3828 9.84172 27.3493 9.72426C27.3239 9.65744 27.3205 9.58427 27.3396 9.5154C27.3587 9.44653 27.3993 9.38555 27.4555 9.34136C27.5117 9.29717 27.5805 9.27207 27.6519 9.26971C27.7234 9.26736 27.7937 9.28787 27.8526 9.32826C28.3853 9.62877 28.8926 9.97221 29.3695 10.3552C29.7918 10.69 30.1666 11.0806 30.4837 11.5163C31.0307 12.2882 30.8998 13.1037 30.4602 13.8856C30.4096 13.9389 30.3429 13.974 30.2703 13.9857C30.1978 13.9974 30.1234 13.9849 30.0586 13.9502C29.9938 13.9156 29.9422 13.8606 29.9117 13.7937C29.8812 13.7269 29.8734 13.6519 29.8897 13.5802C29.9854 13.373 30.065 13.1587 30.128 12.9392C30.1783 12.7602 30.1866 12.572 30.1523 12.3892C30.1179 12.2064 30.0418 12.034 29.93 11.8855C29.4544 11.2841 28.8761 10.7717 28.2218 10.372L28.2788 10.5733C28.6849 11.9929 29.0876 13.4124 29.497 14.832C29.5661 15.0494 29.5745 15.2815 29.5213 15.5033C29.4681 15.7251 29.3552 15.9281 29.195 16.0904C29.1212 16.0502 29.1279 15.973 29.1078 15.9092C28.9377 15.3029 28.7655 14.6955 28.5909 14.087Z" fill="#C44958"/>
<path d="M28.5909 14.0872C28.7654 14.6957 28.941 15.3031 29.1177 15.9094C29.1379 15.9732 29.1177 16.0504 29.205 16.0907C28.9303 16.386 28.5719 16.5904 28.1778 16.6761C27.7837 16.7619 27.3727 16.7251 27.0001 16.5706C26.8186 16.4929 26.6598 16.3703 26.5388 16.2142C26.4179 16.0582 26.3387 15.8739 26.3088 15.6787C26.2789 15.4835 26.2993 15.2839 26.368 15.0988C26.4367 14.9137 26.5515 14.7492 26.7015 14.6208C26.939 14.3697 27.24 14.1876 27.5726 14.0936C27.9052 13.9997 28.2571 13.9975 28.5909 14.0872V14.0872Z" fill="#DC646F"/>
<path d="M10.9602 14.5267C11.4267 13.6508 12.0005 12.8487 12.5073 11.9829C12.8429 11.4057 13.212 10.8419 13.5711 10.2748C13.8731 9.79822 14.1987 9.71432 14.692 9.99286C15.3934 10.3855 16.0881 10.7882 16.7794 11.1943C17.2928 11.493 17.3767 11.8655 17.0613 12.3554C16.1149 13.8555 15.1618 15.3523 14.2154 16.8389C14.1401 16.9395 14.0945 17.0592 14.0838 17.1843C14.0732 17.3095 14.0978 17.4352 14.155 17.547C14.6215 18.7753 15.0712 20.0103 15.5276 21.2386L13.7054 21.9433H13.6349C12.9905 20.1311 12.3529 18.3189 11.6985 16.5101C11.4703 15.8355 11.2589 15.1576 10.9602 14.5267Z" fill="#AB9DFF"/>
<path d="M19.5413 25.1076C19.5413 24.4364 19.5413 23.7417 19.5413 23.0571V6.76497C19.5413 6.13742 19.7762 5.90586 20.4138 5.90922C20.7997 5.90922 21.1823 5.90921 21.5649 5.92935C21.5649 6.09715 21.5649 6.26494 21.5649 6.43274C21.5649 11.4353 21.5649 20.095 21.5649 25.0975V25.1177L19.5413 25.1076Z" fill="#CDC4FF"/>
<path d="M21.5381 25.0976C21.5381 20.095 21.5381 11.4431 21.5381 6.44059C21.5381 6.27279 21.5381 6.10499 21.5381 5.9372C21.9576 5.9372 22.3771 5.91371 22.7932 5.9372C23.3134 5.9372 23.5483 6.21239 23.5483 6.76947V21.7383C23.5483 22.8659 23.5483 23.9901 23.5483 25.1177L21.5381 25.0976Z" fill="#AB9DFF"/>
<path d="M13.6281 21.9258H13.6986C13.7045 22.1177 13.7502 22.3062 13.8328 22.4795C14.296 23.7838 14.7568 25.0915 15.2155 26.4026C13.5375 27.0167 11.8864 27.6376 10.2152 28.2416C10.0482 28.2987 9.86556 28.2877 9.70667 28.211C9.54778 28.1344 9.42544 27.9983 9.36611 27.8322C9.18489 27.3892 9.01039 26.9462 8.86273 26.4898C8.79539 26.3274 8.76313 26.1525 8.76807 25.9767C8.77301 25.8009 8.81504 25.6282 8.8914 25.4698C8.96775 25.3113 9.07672 25.1708 9.21116 25.0575C9.34559 24.9441 9.50247 24.8604 9.6715 24.8119C10.1213 24.7308 10.5381 24.5213 10.8715 24.2087C11.205 23.8961 11.4409 23.4937 11.5508 23.05C11.6086 22.8928 11.6805 22.7412 11.7656 22.597C12.3898 22.3956 13.0241 22.1976 13.6281 21.9258Z" fill="#5C5787"/>
<path d="M21.538 25.0977H23.5515C23.9542 25.4937 24.3603 25.8829 24.7496 26.2857C24.8037 26.3482 24.8715 26.3974 24.9478 26.4294C25.024 26.4614 25.1067 26.4754 25.1892 26.4702C25.5483 26.4702 25.9074 26.4702 26.2665 26.4702C26.4402 26.4652 26.6131 26.4954 26.7749 26.559C26.9367 26.6226 27.0839 26.7182 27.2077 26.8402C27.3316 26.9621 27.4294 27.1079 27.4955 27.2687C27.5615 27.4294 27.5944 27.6019 27.592 27.7757C27.592 28.2321 27.592 28.6885 27.592 29.1415C27.6003 29.233 27.5889 29.3252 27.5585 29.4118C27.528 29.4984 27.4794 29.5775 27.4157 29.6437C27.3521 29.7099 27.275 29.7616 27.1896 29.7954C27.1042 29.8292 27.0126 29.8443 26.9209 29.8396C25.1254 29.8396 23.3267 29.8396 21.5312 29.8396V25.1413L21.538 25.0977Z" fill="#3E3C5E"/>
<path d="M13.6282 21.9262C13.0241 22.1981 12.3899 22.3961 11.7657 22.5974L10.1045 18.2347C9.95681 17.8454 9.82258 17.4461 9.66485 17.0601C9.62323 16.9668 9.60543 16.8646 9.61304 16.7627C9.62066 16.6608 9.65345 16.5623 9.70847 16.4762C10.1213 15.805 10.5441 15.1607 10.9602 14.5029C11.2589 15.1406 11.4536 15.8185 11.6918 16.4762C12.3462 18.3018 12.9839 20.114 13.6282 21.9262Z" fill="#CDC4FF"/>
<path d="M15.2154 26.4169C14.7567 25.1081 14.2958 23.8004 13.8327 22.4938C13.7501 22.3205 13.7044 22.132 13.6985 21.9401L15.5208 21.2354C16.0107 22.5151 16.4984 23.7948 16.9839 25.0745C17.0182 25.1562 17.0353 25.244 17.0342 25.3326C17.0331 25.4211 17.0139 25.5085 16.9778 25.5893C16.9416 25.6702 16.8892 25.7427 16.8239 25.8025C16.7586 25.8623 16.6817 25.9081 16.598 25.937C16.1503 26.1327 15.688 26.2932 15.2154 26.4169V26.4169Z" fill="#3E3C5E"/>
<path d="M21.5549 25.118V29.8163C21.1119 29.8163 20.6689 29.8431 20.2125 29.8163C20.1216 29.8229 20.0302 29.8104 19.9445 29.7793C19.8588 29.7483 19.7806 29.6995 19.715 29.6361C19.6494 29.5728 19.5979 29.4963 19.564 29.4116C19.53 29.327 19.5143 29.2362 19.5178 29.1451C19.5178 27.8027 19.5178 26.4368 19.5178 25.0811L21.5549 25.118Z" fill="#5C5787"/>
<path d="M28.3305 23.0771C28.5487 23.0771 28.7634 23.0771 28.9782 23.0771C29.0677 23.0708 29.1576 23.0824 29.2426 23.1114C29.3275 23.1404 29.4058 23.1861 29.4727 23.2459C29.5397 23.3057 29.594 23.3782 29.6324 23.4594C29.6708 23.5405 29.6926 23.6285 29.6964 23.7181C29.7047 23.809 29.6943 23.9006 29.666 23.9873C29.6377 24.0741 29.592 24.1541 29.5317 24.2226C29.4713 24.291 29.3977 24.3465 29.3153 24.3856C29.2328 24.4246 29.1432 24.4464 29.0521 24.4497C28.5614 24.4782 28.0695 24.4782 27.5788 24.4497C27.4847 24.4464 27.3924 24.4234 27.3078 24.3821C27.2232 24.3408 27.1483 24.2821 27.0878 24.21C27.0274 24.1378 26.9828 24.0537 26.9569 23.9632C26.9311 23.8727 26.9246 23.7778 26.9378 23.6846C26.9433 23.5975 26.9662 23.5124 27.0052 23.4343C27.0442 23.3562 27.0985 23.2868 27.1649 23.2301C27.2312 23.1735 27.3083 23.1307 27.3915 23.1044C27.4747 23.0782 27.5624 23.0689 27.6493 23.0771C27.8741 23.0738 28.1023 23.0771 28.3305 23.0771Z" fill="#5C5787"/>
<path d="M7.99359 23.0903C7.77881 23.0903 7.56403 23.0903 7.34925 23.0903C7.16902 23.0903 6.99617 23.0187 6.86872 22.8913C6.74128 22.7639 6.66968 22.591 6.66968 22.4108C6.66968 22.2305 6.74128 22.0577 6.86872 21.9302C6.99617 21.8028 7.16902 21.7312 7.34925 21.7312C7.79671 21.7133 8.24417 21.7133 8.69162 21.7312C8.782 21.7276 8.87217 21.7423 8.95673 21.7744C9.04128 21.8065 9.11848 21.8553 9.18367 21.918C9.24887 21.9807 9.30072 22.0559 9.33612 22.1392C9.37152 22.2224 9.38973 22.3119 9.38965 22.4024C9.39351 22.4957 9.37786 22.5887 9.34372 22.6756C9.30958 22.7625 9.25769 22.8413 9.19136 22.907C9.12504 22.9727 9.04574 23.0238 8.95854 23.0571C8.87133 23.0904 8.77814 23.1052 8.68491 23.1004C8.44999 23.1004 8.22179 23.0903 7.99359 23.0903Z" fill="#5C5787"/>
<path d="M28.1055 20.4901C28.1152 20.6043 28.0994 20.7191 28.0594 20.8265C28.0193 20.9339 27.956 21.031 27.8739 21.1109C27.592 21.3995 27.3068 21.6915 27.0115 21.9734C26.95 22.0508 26.8729 22.1142 26.7851 22.1595C26.6973 22.2048 26.6009 22.231 26.5023 22.2363C26.4037 22.2416 26.305 22.2259 26.2129 22.1902C26.1208 22.1546 26.0373 22.0998 25.9679 22.0294C25.8986 21.9591 25.8449 21.8749 25.8105 21.7823C25.7761 21.6897 25.7618 21.5908 25.7684 21.4923C25.7751 21.3937 25.8026 21.2977 25.8491 21.2106C25.8956 21.1234 25.9601 21.0471 26.0382 20.9868C26.3369 20.678 26.6423 20.3726 26.9544 20.0773C27.0477 19.9935 27.1618 19.9366 27.2849 19.9124C27.4079 19.8883 27.5351 19.8979 27.6531 19.9402C27.7711 19.9825 27.8755 20.056 27.9551 20.1528C28.0348 20.2496 28.0867 20.3661 28.1055 20.4901Z" fill="#5C5787"/>
<path d="M9.17492 20.2079C9.17708 20.3192 9.15004 20.4292 9.0965 20.5268C9.04296 20.6244 8.96478 20.7064 8.86974 20.7644C8.7747 20.8224 8.66612 20.8546 8.55481 20.8576C8.44349 20.8607 8.33332 20.8345 8.23526 20.7817C7.73277 20.4549 7.30226 20.0289 6.97007 19.53C6.89523 19.3996 6.86803 19.2474 6.89313 19.0992C6.91824 18.951 6.99408 18.8162 7.10767 18.7178C7.22456 18.611 7.37719 18.5518 7.53555 18.5518C7.6939 18.5518 7.84653 18.611 7.96343 18.7178C8.32587 19.0534 8.66481 19.4058 9.00712 19.7548C9.06598 19.8138 9.11142 19.8849 9.14038 19.963C9.16933 20.0412 9.18111 20.1247 9.17492 20.2079V20.2079Z" fill="#5C5787"/>
</svg>
