<svg width="36" height="37" viewBox="0 0 36 37" fill="none" xmlns="http://www.w3.org/2000/svg">
<path d="M26.2385 30.972C26.2385 25.4229 26.2385 19.8751 26.2385 14.3287C26.2167 14.0552 26.2931 13.7829 26.4539 13.5606C26.7839 13.5098 27.1197 13.5098 27.4497 13.5606C27.5651 13.5677 27.6736 13.6181 27.7534 13.7018C27.8333 13.7854 27.8787 13.8961 27.8805 14.0117C27.8846 14.0834 27.8846 14.1554 27.8805 14.2271V30.972C27.8805 30.972 26.6821 30.972 26.2385 30.972Z" fill="#5C5787"/>
<path d="M26.4498 13.5484C26.289 13.7707 26.2127 14.0431 26.2344 14.3166C26.2344 19.863 26.2344 25.4175 26.2344 30.9802H24.6006C24.6006 30.8502 24.6006 30.6713 24.6006 30.525C24.6006 25.1059 24.6006 19.6991 24.6006 14.3044C24.6006 13.6297 24.6941 13.5362 25.3647 13.5362C25.7101 13.5322 26.08 13.5403 26.4498 13.5484Z" fill="#3E3C5E"/>
<path d="M15.1875 30.9639H13.5618C13.5618 30.6266 13.5618 30.2933 13.5618 29.96V17.3607C13.5618 16.6698 13.6715 16.5479 14.3746 16.5479H15.4151C15.245 16.8478 15.1686 17.1917 15.1956 17.5355C15.1956 19.3847 15.1956 21.2381 15.1956 23.0873C15.1956 25.721 15.1929 28.3465 15.1875 30.9639Z" fill="#3E3C5E"/>
<path d="M15.1877 30.9638C15.1877 28.3382 15.1877 25.714 15.1877 23.0912C15.1877 21.242 15.1877 19.3886 15.1877 17.5394C15.1606 17.1956 15.2371 16.8517 15.4072 16.5518C15.773 16.5518 16.1387 16.5518 16.5005 16.5761C16.5912 16.5857 16.6755 16.6275 16.7381 16.6938C16.8007 16.7602 16.8375 16.8467 16.8419 16.9379C16.8501 17.0217 16.8501 17.1061 16.8419 17.1899V30.6955C16.8419 30.7931 16.8419 30.8865 16.8419 30.9841L15.1877 30.9638Z" fill="#5C5787"/>
<path d="M20.7151 30.9596H19.0894C19.0894 30.7442 19.0894 30.5288 19.0894 30.3134V20.2705C19.0894 19.6933 19.2316 19.547 19.8047 19.543C20.2111 19.543 20.6175 19.543 21.024 19.543C20.9193 19.6306 20.8383 19.7432 20.7886 19.8703C20.7389 19.9975 20.722 20.1351 20.7395 20.2705C20.7286 23.8416 20.7205 27.4047 20.7151 30.9596Z" fill="#3E3C5E"/>
<path d="M20.7152 30.9598C20.7152 27.4049 20.7152 23.8486 20.7152 20.291C20.6977 20.1556 20.7146 20.018 20.7643 19.8908C20.814 19.7637 20.895 19.6511 20.9997 19.5635C21.3167 19.5635 21.6378 19.5635 21.9548 19.5635C22.0607 19.5693 22.1607 19.614 22.2357 19.689C22.3107 19.764 22.3554 19.864 22.3612 19.9699C22.3694 20.0768 22.3694 20.1841 22.3612 20.291V30.5574C22.3612 30.6915 22.3612 30.8216 22.3612 30.9638L20.7152 30.9598Z" fill="#5C5787"/>
<path d="M9.7333 30.9639H8.05474C8.05474 28.8017 8.05474 26.6395 8.05474 24.461C8.03166 23.9962 8.04117 23.5304 8.08319 23.0669C8.14009 22.6605 8.25796 22.5589 8.66845 22.5508H9.95683C9.77728 22.8287 9.70504 23.1624 9.75362 23.4896C9.74549 25.9797 9.73871 28.4711 9.7333 30.9639Z" fill="#3E3C5E"/>
<path d="M9.73358 30.9636C9.73358 28.4736 9.73358 25.9835 9.73358 23.4934C9.69043 23.1692 9.76545 22.8402 9.94493 22.5668C10.2145 22.5285 10.4882 22.5285 10.7578 22.5668C11.2171 22.5993 11.3796 22.8147 11.3837 23.3471V29.2485C11.3837 29.8337 11.3837 30.419 11.3837 31.0002L9.73358 30.9636Z" fill="#5C5787"/>
<path d="M10.1724 16.7756C10.1875 16.6805 10.2384 16.5947 10.3146 16.5358C11.5989 15.1905 12.8385 13.8046 14.0903 12.4065C14.1252 12.3735 14.165 12.3461 14.2082 12.3252C14.3755 12.5639 14.5988 12.7579 14.8585 12.8901C14.5003 13.1582 14.1791 13.4726 13.9034 13.8249C13.4685 14.2598 13.0905 14.7394 12.6557 15.1946L10.7454 17.2836C10.6019 17.0673 10.4043 16.8922 10.1724 16.7756V16.7756Z" fill="#CDC4FF"/>
<path d="M21.2148 13.7638C21.3043 13.4671 21.5684 13.2924 21.7554 13.0729C22.3935 12.3413 23.0763 11.6422 23.7347 10.9269C24.1411 10.492 24.5232 10.045 24.9215 9.60197C25.0068 9.50849 25.0881 9.39469 25.2385 9.39062C25.3843 9.56024 25.5525 9.70927 25.7384 9.83363C25.5828 10.1264 25.3732 10.387 25.1206 10.6018C24.4825 11.3374 23.7957 12.0365 23.1332 12.7518C22.7268 13.2151 22.2919 13.6907 21.8733 14.1621C21.8339 14.2208 21.8037 14.2853 21.7838 14.3531C21.6411 14.1163 21.4465 13.9148 21.2148 13.7638V13.7638Z" fill="#CDC4FF"/>
<path d="M25.7386 9.83346C25.5527 9.7091 25.3845 9.56007 25.2387 9.39046C24.9745 8.66701 25.1209 8.10207 25.6452 7.80538C25.857 7.68104 26.1036 7.62887 26.3476 7.65673C26.5917 7.68458 26.8202 7.79095 26.9986 7.95982C27.185 8.13029 27.3082 8.35891 27.3481 8.60838C27.3879 8.85786 27.3421 9.11348 27.218 9.33356C27.0972 9.54707 26.9116 9.71655 26.6879 9.8174C26.4643 9.91825 26.2144 9.94523 25.9744 9.89443C25.8971 9.87817 25.8199 9.85379 25.7386 9.83346Z" fill="#DC646F"/>
<path d="M21.2149 13.7636C21.4465 13.9146 21.6411 14.116 21.7839 14.3529C21.9586 15.1414 21.6538 15.7429 21.0035 15.9136C20.8201 15.958 20.6286 15.9572 20.4456 15.9111C20.2626 15.865 20.0936 15.7751 19.9532 15.649C19.8127 15.523 19.7051 15.3646 19.6395 15.1877C19.574 15.0107 19.5525 14.8204 19.5769 14.6333C19.6515 14.3639 19.791 14.1168 19.9834 13.9139C20.1599 13.7883 20.365 13.7087 20.58 13.6824C20.7951 13.6562 21.0133 13.6841 21.2149 13.7636V13.7636Z" fill="#DC646F"/>
<path d="M14.8462 12.9019C14.5865 12.7697 14.3632 12.5757 14.1959 12.337C14.074 12.0948 14.0406 11.8176 14.1014 11.5534C14.1623 11.2892 14.3136 11.0545 14.5292 10.8901C14.7102 10.753 14.928 10.6732 15.1547 10.6609C15.3814 10.6485 15.6066 10.7043 15.8013 10.821C15.9998 10.9404 16.1581 11.1164 16.2559 11.3264C16.3536 11.5365 16.3864 11.7709 16.35 11.9997C16.2762 12.2646 16.1364 12.5066 15.9436 12.7028C15.6183 12.911 15.224 12.9826 14.8462 12.9019Z" fill="#DC646F"/>
<path d="M10.1722 16.7755C10.4042 16.8921 10.6017 17.0672 10.7452 17.2835C10.9403 17.9826 10.7859 18.5028 10.2941 18.7914C10.0921 18.9129 9.85728 18.9688 9.62215 18.9511C9.38702 18.9335 9.16318 18.8432 8.98157 18.6928C8.79995 18.5425 8.66953 18.3394 8.60834 18.1117C8.54714 17.884 8.55818 17.6429 8.63994 17.4217C8.71528 17.1997 8.86152 17.0086 9.05614 16.8779C9.25076 16.7472 9.48296 16.684 9.71698 16.6983C9.87262 16.6889 10.0283 16.7153 10.1722 16.7755V16.7755Z" fill="#DC646F"/>
<path d="M15.9639 12.6826C16.1566 12.4864 16.2965 12.2445 16.3703 11.9795L19.6543 13.7637C19.7681 13.8247 19.894 13.8653 20.0119 13.9141C19.8196 14.117 19.68 14.364 19.6055 14.6335L15.9639 12.6826Z" fill="#CDC4FF"/>
</svg>
