<svg width="36" height="37" viewBox="0 0 36 37" fill="none" xmlns="http://www.w3.org/2000/svg">
<path d="M12.3184 27.825C13.1603 27.989 14.033 27.8564 14.7882 27.4497C16.3848 26.6719 17.1762 25.338 17.357 23.5948C17.4594 22.5532 17.5663 21.5116 17.6777 20.47C17.6809 20.3414 17.7105 20.2149 17.7645 20.0982C17.8185 19.9816 17.8958 19.8772 17.9917 19.7915C18.0876 19.7058 18.2 19.6407 18.322 19.6002C18.444 19.5596 18.573 19.5445 18.7011 19.5557C19.264 19.5557 19.8269 19.5557 20.4068 19.5557C20.521 19.5686 20.6365 19.5574 20.746 19.5227C20.8556 19.4881 20.9565 19.4307 21.0425 19.3545C21.1284 19.2782 21.1973 19.1848 21.2447 19.0801C21.2921 18.9755 21.317 18.8621 21.3177 18.7472C21.3259 18.6262 21.3086 18.5047 21.2667 18.3908C21.2249 18.2769 21.1595 18.1732 21.0748 18.0862C20.9902 17.9993 20.8881 17.9312 20.7754 17.8864C20.6626 17.8416 20.5417 17.8211 20.4205 17.8261C19.9224 17.8261 19.4243 17.8261 18.9263 17.8261C18.8108 17.8366 18.6943 17.8216 18.5853 17.7821C18.4762 17.7426 18.3772 17.6796 18.2952 17.5976C18.2132 17.5155 18.1502 17.4165 18.1107 17.3074C18.0712 17.1984 18.0561 17.082 18.0666 16.9665C18.1758 15.6497 18.2679 14.326 18.476 13.0229C18.667 11.8289 19.8405 10.9453 21.0789 10.9112C21.686 10.902 22.2797 11.0894 22.7716 11.4454C23.2635 11.8014 23.627 12.3069 23.808 12.8864C23.8717 13.1269 23.9049 13.3745 23.9069 13.6233C23.8996 13.7444 23.9178 13.8657 23.9605 13.9792C24.0032 14.0928 24.0694 14.1961 24.1547 14.2824C24.24 14.3686 24.3425 14.4359 24.4556 14.4799C24.5687 14.5239 24.6898 14.5435 24.8109 14.5375C25.3192 14.5375 25.6297 14.1725 25.6297 13.5994C25.6293 12.5058 25.2285 11.4501 24.503 10.6318C23.7774 9.8135 22.7774 9.28912 21.6917 9.15771C20.606 9.0263 19.5098 9.29695 18.61 9.91855C17.7102 10.5402 17.0691 11.4697 16.8078 12.5316C16.7532 12.7602 16.7259 12.9922 16.6747 13.2139C16.6639 13.3282 16.63 13.4391 16.575 13.5398C16.5199 13.6406 16.445 13.729 16.3547 13.7999C16.2643 13.8707 16.1605 13.9225 16.0496 13.9519C15.9387 13.9814 15.8229 13.988 15.7093 13.9713C15.5962 13.9614 15.4864 13.9279 15.3871 13.8728C15.2879 13.8177 15.2013 13.7424 15.1331 13.6516C15.0648 13.5609 15.0165 13.4568 14.9912 13.3461C14.9658 13.2354 14.9641 13.1206 14.9861 13.0092C15.0685 11.9661 15.424 10.963 16.0168 10.1007C16.6096 9.23844 17.4189 8.54733 18.3634 8.09683C19.2356 7.66102 20.1981 7.43652 21.1732 7.44149C22.1482 7.44645 23.1084 7.68073 23.9761 8.12539C24.8439 8.57006 25.5948 9.21263 26.1683 10.0012C26.7418 10.7897 27.1217 11.7022 27.2774 12.6647C27.3888 13.1822 27.397 13.7167 27.3013 14.2373C27.1742 14.8827 26.8044 15.4547 26.2681 15.8356C25.7318 16.2164 25.0698 16.3769 24.4186 16.2842C23.2383 16.1716 22.266 15.0834 22.1705 13.7768C22.1228 13.0945 21.7407 12.6715 21.1471 12.6613C20.5535 12.651 20.1578 13.0877 20.0896 13.7563C20.0213 14.425 19.9702 15.0595 19.8781 15.7077C19.8303 16.0249 19.8781 16.1341 20.2397 16.1307C20.5817 16.1069 20.9251 16.1511 21.25 16.2607C21.5749 16.3702 21.8749 16.5429 22.1328 16.7689C22.3907 16.9949 22.6013 17.2696 22.7525 17.5774C22.9038 17.8851 22.9926 18.2197 23.014 18.5619C23.0354 18.9041 22.9888 19.2471 22.8771 19.5713C22.7653 19.8954 22.5905 20.1943 22.3627 20.4506C22.135 20.7069 21.8588 20.9156 21.55 21.0647C21.2413 21.2138 20.9061 21.3004 20.5637 21.3194C20.2499 21.3194 19.936 21.3194 19.6222 21.3194C19.3936 21.3194 19.3186 21.3638 19.2811 21.6094C19.1617 22.6635 19.1003 23.7245 18.9024 24.7649C18.3634 27.7601 15.2385 30.0048 12.1888 29.5886C10.7873 29.4382 9.47854 28.8162 8.47693 27.8245C7.47532 26.8328 6.8403 25.5303 6.67593 24.1304C6.50877 22.9467 6.74757 21.8755 7.84263 21.1761C9.54833 20.0879 11.6941 21.2444 11.834 23.3185C11.8783 23.9735 12.257 24.3931 12.8267 24.4136C13.3964 24.434 13.8262 24.0008 13.8979 23.3356C13.9661 22.7386 14.0275 22.1381 14.1162 21.5446C14.1537 21.2955 14.0582 21.2512 13.8467 21.2682C13.5014 21.2998 13.1533 21.2621 12.8228 21.1574C12.4923 21.0526 12.186 20.8828 11.9221 20.658C11.6581 20.4333 11.4416 20.158 11.2855 19.8484C11.1293 19.5389 11.0366 19.2012 11.0127 18.8553C10.9889 18.5094 11.0344 18.1622 11.1465 17.8342C11.2587 17.5061 11.4353 17.2037 11.6659 16.9448C11.8965 16.6859 12.1765 16.4757 12.4895 16.3265C12.8025 16.1774 13.1421 16.0922 13.4885 16.0761C14.1162 16.0761 14.7473 16.0761 15.375 16.0761C15.4986 16.0709 15.6219 16.0912 15.7373 16.1356C15.8528 16.18 15.9579 16.2476 16.0461 16.3343C16.1344 16.4209 16.2039 16.5248 16.2504 16.6394C16.297 16.754 16.3195 16.8769 16.3165 17.0006C16.3102 17.1184 16.2801 17.2338 16.2279 17.3397C16.1757 17.4456 16.1026 17.5398 16.013 17.6166C15.9234 17.6935 15.8192 17.7513 15.7066 17.7868C15.594 17.8222 15.4754 17.8344 15.3579 17.8227C14.7644 17.8227 14.1742 17.8227 13.584 17.8227C13.3894 17.8186 13.1991 17.8797 13.0431 17.9961C12.8872 18.1126 12.7746 18.2778 12.7233 18.4655C12.672 18.6532 12.6848 18.8527 12.7598 19.0323C12.8347 19.2119 12.9676 19.3613 13.1371 19.4568C13.2773 19.5279 13.4341 19.5597 13.5908 19.5489C14.0616 19.5489 14.5358 19.5489 15.0066 19.5489C15.1349 19.536 15.2645 19.5523 15.3856 19.5965C15.5068 19.6407 15.6164 19.7117 15.7062 19.8042C15.7961 19.8967 15.8639 20.0083 15.9046 20.1307C15.9453 20.253 15.9579 20.383 15.9413 20.5109C15.8654 21.6991 15.7253 22.8823 15.5217 24.0554C15.4292 24.5733 15.1768 25.0493 14.7999 25.4165C14.423 25.7836 13.9405 26.0234 13.4203 26.1022C12.8927 26.2262 12.3399 26.1861 11.8357 25.9874C11.3316 25.7886 10.9001 25.4407 10.599 24.9901C10.5206 24.8843 10.4558 24.7718 10.3841 24.6489L10.2784 24.434L10.2613 24.3556C10.1715 24.0443 10.1177 23.7238 10.101 23.4004C10.1032 23.279 10.0795 23.1586 10.0314 23.0471C9.98337 22.9356 9.91207 22.8357 9.8223 22.754C9.73252 22.6723 9.62634 22.6107 9.51085 22.5733C9.39536 22.536 9.27323 22.5237 9.15261 22.5373C9.04116 22.5441 8.93224 22.5733 8.83237 22.6232C8.7325 22.6731 8.64374 22.7427 8.57142 22.8278C8.4991 22.9128 8.4447 23.0116 8.41151 23.1182C8.37831 23.2248 8.36699 23.337 8.37822 23.4481C8.35646 24.3428 8.62847 25.2199 9.15261 25.9453C9.50077 26.4804 9.96739 26.9283 10.5163 27.2542C11.0653 27.5802 11.6819 27.7754 12.3184 27.825V27.825Z" fill="#3E3C5E"/>
<path d="M25.6193 25.3343C25.625 25.446 25.6045 25.5576 25.5595 25.66C25.5144 25.7625 25.4462 25.853 25.3601 25.9245C25.0565 26.2315 24.7562 26.5453 24.4424 26.8421C24.2889 26.9854 24.2957 27.0775 24.4424 27.2174C24.7597 27.5142 25.0599 27.8246 25.3601 28.135C25.4449 28.213 25.513 28.3074 25.5602 28.4125C25.6074 28.5176 25.6327 28.6312 25.6347 28.7464C25.6366 28.8616 25.615 28.976 25.5713 29.0826C25.5277 29.1892 25.4627 29.2858 25.3805 29.3666C25.302 29.4514 25.2067 29.5191 25.1008 29.5654C24.9948 29.6117 24.8804 29.6356 24.7648 29.6356C24.6491 29.6356 24.5348 29.6117 24.4288 29.5654C24.3228 29.5191 24.2276 29.4514 24.149 29.3666C23.8318 29.0732 23.5281 28.7662 23.2313 28.4489C23.0949 28.3022 23.0028 28.292 22.8595 28.4489C22.6071 28.7286 22.3205 28.9811 22.0578 29.254C21.6348 29.6975 21.0856 29.7521 20.6933 29.3802C20.301 29.0084 20.3521 28.4898 20.7786 28.0566C21.0549 27.7734 21.3278 27.4903 21.6143 27.2208C21.7644 27.0809 21.7679 26.982 21.6143 26.8387C21.3346 26.5795 21.0719 26.3065 20.8058 26.0336C20.3453 25.5594 20.3044 25.0546 20.6899 24.6691C21.0753 24.2836 21.6041 24.3484 22.0544 24.7851C22.3239 25.0546 22.6002 25.3172 22.8561 25.597C22.996 25.7437 23.0881 25.7539 23.2313 25.597C23.535 25.2558 23.8522 24.9556 24.1763 24.652C24.3008 24.5333 24.4584 24.4553 24.6283 24.4281C24.7981 24.401 24.9722 24.426 25.1275 24.5C25.2828 24.574 25.412 24.6933 25.498 24.8423C25.584 24.9913 25.6227 25.1628 25.6091 25.3343H25.6193Z" fill="#DC646F"/>
<path d="M10.275 24.4378L10.3807 24.6527C10.1897 24.7653 10.3159 24.9085 10.3534 25.0313C10.6945 26.0503 11.3238 26.9485 12.1649 27.6172C12.2331 27.6752 12.3218 27.7127 12.3184 27.8253C11.6819 27.7758 11.0653 27.5805 10.5164 27.2546C9.9674 26.9286 9.50078 26.4807 9.15262 25.9456C8.62848 25.2202 8.35647 24.3431 8.37823 23.4485C8.367 23.3374 8.37832 23.2252 8.41152 23.1186C8.44471 23.012 8.49911 22.9132 8.57143 22.8281C8.64375 22.743 8.73251 22.6735 8.83238 22.6235C8.93225 22.5736 9.04117 22.5444 9.15262 22.5376C9.27353 22.524 9.39596 22.5363 9.51169 22.5739C9.62743 22.6115 9.73378 22.6734 9.82361 22.7555C9.91345 22.8375 9.98467 22.9379 10.0325 23.0498C10.0804 23.1616 10.1037 23.2825 10.101 23.4041C10.1177 23.7276 10.1715 24.0481 10.2613 24.3593C10.2613 24.3593 10.2374 24.3832 10.2409 24.3866L10.275 24.4378Z" fill="#CDC4FF"/>
<path d="M10.2751 24.4378L10.2375 24.3867C10.2375 24.3867 10.2375 24.3867 10.258 24.3594L10.2751 24.4378Z" fill="#F7F9FA"/>
</svg>
