<svg width="15" height="19" viewBox="0 0 15 19" fill="none" xmlns="http://www.w3.org/2000/svg">
<path d="M4.16667 8.63636H10.8333V6.04545C10.8333 5.09185 10.5078 4.2777 9.85677 3.60298C9.20573 2.92826 8.42014 2.59091 7.5 2.59091C6.57986 2.59091 5.79427 2.92826 5.14323 3.60298C4.49218 4.2777 4.16667 5.09185 4.16667 6.04545V8.63636ZM15 9.93182V17.7045C15 18.0644 14.8785 18.3703 14.6354 18.6222C14.3924 18.8741 14.0972 19 13.75 19H1.25C0.902776 19 0.60764 18.8741 0.364583 18.6222C0.121527 18.3703 0 18.0644 0 17.7045V9.93182C0 9.57197 0.121527 9.2661 0.364583 9.0142C0.60764 8.76231 0.902776 8.63636 1.25 8.63636H1.66667V6.04545C1.66667 4.39014 2.23958 2.96876 3.38542 1.78125C4.53126 0.593744 5.90277 0 7.5 0C9.09723 0 10.4687 0.593744 11.6146 1.78125C12.7604 2.96876 13.3333 4.39014 13.3333 6.04545V8.63636H13.75C14.0972 8.63636 14.3924 8.76231 14.6354 9.0142C14.8785 9.2661 15 9.57197 15 9.93182Z" fill="white"/>
</svg>
