<svg width="36" height="36" viewBox="0 0 36 36" fill="none" xmlns="http://www.w3.org/2000/svg">
<g clip-path="url(#clip0_185_1599)">
<path d="M10.6301 19.6772V17.2468C10.6301 16.83 10.2923 16.4922 9.87556 16.4922H8.30777C7.89104 16.4922 7.55321 16.83 7.55321 17.2468V19.6772C7.55321 20.094 7.89104 20.4318 8.30777 20.4318H9.87556C10.2923 20.4318 10.6301 20.094 10.6301 19.6772Z" fill="#E3838C"/>
<path d="M9.66162 19.6785V17.2455C9.66162 16.8295 9.32435 16.4922 8.90831 16.4922H7.34863C6.93259 16.4922 6.59532 16.8295 6.59532 17.2455V19.6785C6.59532 20.0946 6.93259 20.4318 7.34863 20.4318H8.90831C9.32435 20.4318 9.66162 20.0946 9.66162 19.6785Z" fill="#DC646F"/>
<path d="M6.19412 21.5688L3.45111 18.8262C3.35484 18.7296 3.30078 18.5987 3.30078 18.4623C3.30078 18.3259 3.35484 18.1951 3.45111 18.0985L6.19724 15.3559C6.26916 15.2839 6.36084 15.2349 6.46065 15.215C6.56047 15.1951 6.66394 15.2053 6.75796 15.2443C6.85199 15.2832 6.93234 15.3492 6.98884 15.4339C7.04535 15.5185 7.07546 15.618 7.07538 15.7198V21.2049C7.07609 21.3073 7.04621 21.4076 6.98955 21.4929C6.9329 21.5783 6.85205 21.6448 6.75738 21.6838C6.66271 21.7229 6.55852 21.7329 6.45817 21.7124C6.35782 21.6919 6.26587 21.6419 6.19412 21.5688V21.5688Z" fill="#C44958"/>
<path d="M8.59082 19.8264V17.0976C8.59082 16.7632 8.31978 16.4922 7.98542 16.4922H7.21775C6.8834 16.4922 6.61236 16.7632 6.61236 17.0976V19.8264C6.61236 20.1608 6.8834 20.4318 7.21775 20.4318H7.98542C8.31978 20.4318 8.59082 20.1608 8.59082 19.8264Z" fill="#C44958"/>
<path d="M28.4463 19.6772V17.2468C28.4463 16.83 28.1085 16.4922 27.6917 16.4922H26.1239C25.7072 16.4922 25.3694 16.83 25.3694 17.2468V19.6772C25.3694 20.094 25.7072 20.4318 26.1239 20.4318H27.6917C28.1085 20.4318 28.4463 20.094 28.4463 19.6772Z" fill="#E3838C"/>
<path d="M29.4045 19.6785V17.2455C29.4045 16.8295 29.0673 16.4922 28.6512 16.4922H27.0915C26.6755 16.4922 26.3382 16.8295 26.3382 17.2455V19.6785C26.3382 20.0946 26.6755 20.4318 27.0915 20.4318H28.6512C29.0673 20.4318 29.4045 20.0946 29.4045 19.6785Z" fill="#DC646F"/>
<path d="M29.8056 21.5688L32.548 18.8262C32.5958 18.7785 32.6338 18.7217 32.6597 18.6593C32.6855 18.5969 32.6989 18.5299 32.6989 18.4623C32.6989 18.3948 32.6855 18.3278 32.6597 18.2654C32.6338 18.2029 32.5958 18.1462 32.548 18.0985L29.8056 15.3559C29.7337 15.2839 29.642 15.2349 29.5422 15.215C29.4424 15.1951 29.3389 15.2053 29.2449 15.2443C29.1509 15.2832 29.0705 15.3492 29.014 15.4339C28.9575 15.5185 28.9274 15.618 28.9275 15.7198V21.2049C28.9274 21.3067 28.9575 21.4062 29.014 21.4908C29.0705 21.5755 29.1509 21.6415 29.2449 21.6804C29.3389 21.7194 29.4424 21.7296 29.5422 21.7097C29.642 21.6898 29.7337 21.6408 29.8056 21.5688Z" fill="#C44958"/>
<path d="M29.387 19.8264V17.0976C29.387 16.7632 29.1159 16.4922 28.7816 16.4922H28.0139C27.6795 16.4922 27.4085 16.7632 27.4085 17.0976V19.8264C27.4085 20.1608 27.6795 20.4318 28.0139 20.4318H28.7816C29.1159 20.4318 29.387 20.1608 29.387 19.8264Z" fill="#C44958"/>
<path d="M18.6937 16.4111H17.3057V20.9562H18.6937V16.4111Z" fill="#AB9DFF"/>
<path d="M22.6035 19.1875H13.3964C13.2296 19.1875 13.0683 19.2476 12.9422 19.3568C12.8161 19.4661 12.7336 19.6172 12.7099 19.7823L11.4617 28.4518H24.5401L23.2919 19.7823C23.268 19.6172 23.1855 19.4662 23.0594 19.357C22.9334 19.2478 22.7722 19.1876 22.6053 19.1875" fill="#CDC4FF"/>
<path d="M14.4824 19.1875H13.3964C13.2296 19.1875 13.0683 19.2476 12.9422 19.3568C12.8161 19.4661 12.7336 19.6172 12.7099 19.7823L11.4617 28.4518H12.5476L13.7959 19.7823C13.8197 19.6172 13.9023 19.4662 14.0283 19.357C14.1544 19.2478 14.3156 19.1876 14.4824 19.1875Z" fill="#AB9DFF"/>
<path d="M21.9898 17.7989H14.0098C13.6681 17.799 13.3296 17.7318 13.0139 17.601C12.6981 17.4703 12.4112 17.2786 12.1695 17.037C11.9279 16.7954 11.7361 16.5085 11.6053 16.1927C11.4745 15.877 11.4072 15.5386 11.4072 15.1968V15.1968C11.4072 14.8551 11.4745 14.5166 11.6053 14.2009C11.7361 13.8852 11.9279 13.5983 12.1695 13.3566C12.4112 13.115 12.6981 12.9234 13.0139 12.7926C13.3296 12.6619 13.6681 12.5946 14.0098 12.5947H21.9898C22.3315 12.5946 22.6699 12.6619 22.9856 12.7926C23.3014 12.9234 23.5882 13.115 23.8299 13.3567C24.0715 13.5983 24.2631 13.8852 24.3939 14.2009C24.5246 14.5167 24.5919 14.8551 24.5918 15.1968V15.1968C24.5919 15.5386 24.5246 15.877 24.3939 16.1927C24.2631 16.5084 24.0715 16.7953 23.8299 17.037C23.5882 17.2786 23.3014 17.4703 22.9856 17.601C22.6699 17.7318 22.3315 17.799 21.9898 17.7989Z" fill="#CDC4FF"/>
<path d="M12.7953 15.1968C12.7953 14.8551 12.8626 14.5166 12.9934 14.2009C13.1242 13.8852 13.3159 13.5983 13.5576 13.3566C13.7993 13.115 14.0862 12.9234 14.4019 12.7926C14.7177 12.6619 15.0561 12.5946 15.3979 12.5947H14.0098C13.6681 12.5946 13.3296 12.6619 13.0139 12.7926C12.6981 12.9234 12.4112 13.115 12.1695 13.3566C11.9279 13.5983 11.7361 13.8852 11.6053 14.2009C11.4745 14.5166 11.4072 14.8551 11.4072 15.1968V15.1968C11.4072 15.5386 11.4745 15.877 11.6053 16.1927C11.7361 16.5085 11.9279 16.7954 12.1695 17.037C12.4112 17.2786 12.6981 17.4703 13.0139 17.601C13.3296 17.7318 13.6681 17.799 14.0098 17.7989H15.3979C15.0561 17.799 14.7177 17.7318 14.4019 17.601C14.0862 17.4703 13.7993 17.2786 13.5576 17.037C13.3159 16.7954 13.1242 16.5085 12.9934 16.1927C12.8626 15.877 12.7953 15.5386 12.7953 15.1968Z" fill="#AB9DFF"/>
<path d="M14.0099 16.4116C13.6878 16.4116 13.3789 16.2837 13.1511 16.0559C12.9234 15.8281 12.7954 15.5192 12.7954 15.197C12.7954 14.8749 12.9234 14.566 13.1511 14.3382C13.3789 14.1104 13.6878 13.9824 14.0099 13.9824H21.99C22.3121 13.9824 22.621 14.1104 22.8488 14.3382C23.0765 14.566 23.2045 14.8749 23.2045 15.197C23.2045 15.5192 23.0765 15.8281 22.8488 16.0559C22.621 16.2837 22.3121 16.4116 21.99 16.4116H14.0099Z" fill="#3E3C5E"/>
<path d="M12.8497 22.5527H10.0717C9.9806 22.5527 9.89036 22.5705 9.80616 22.6053C9.72196 22.6402 9.64545 22.6912 9.581 22.7556C9.51654 22.82 9.46541 22.8965 9.43053 22.9807C9.39564 23.0648 9.37769 23.1551 9.37769 23.2462V29.145C9.37769 29.3291 9.45081 29.5057 9.58096 29.6358C9.71111 29.766 9.88764 29.8391 10.0717 29.8391H12.8497C13.0337 29.8391 13.2103 29.766 13.3404 29.6358C13.4706 29.5057 13.5437 29.3291 13.5437 29.145V23.2462C13.5437 23.1551 13.5257 23.0648 13.4908 22.9807C13.456 22.8965 13.4048 22.82 13.3404 22.7556C13.2759 22.6912 13.1994 22.6402 13.1152 22.6053C13.031 22.5705 12.9408 22.5527 12.8497 22.5527" fill="#5C5787"/>
<path d="M10.7657 29.145V23.2462C10.7657 23.1551 10.7837 23.0648 10.8186 22.9807C10.8535 22.8965 10.9046 22.82 10.969 22.7556C11.0335 22.6912 11.11 22.6402 11.1942 22.6053C11.2784 22.5705 11.3686 22.5527 11.4598 22.5527H10.0717C9.9806 22.5527 9.89036 22.5705 9.80616 22.6053C9.72196 22.6402 9.64545 22.6912 9.581 22.7556C9.51654 22.82 9.46541 22.8965 9.43053 22.9807C9.39564 23.0648 9.37769 23.1551 9.37769 23.2462V29.145C9.37769 29.3291 9.45081 29.5057 9.58096 29.6358C9.71111 29.766 9.88764 29.8391 10.0717 29.8391H11.4598C11.2757 29.8391 11.0992 29.766 10.969 29.6358C10.8388 29.5057 10.7657 29.3291 10.7657 29.145" fill="#3E3C5E"/>
<path d="M25.9282 22.5527H23.1521C22.9686 22.5532 22.7927 22.6265 22.6632 22.7565C22.5337 22.8865 22.461 23.0626 22.4612 23.2462V29.145C22.4611 29.2362 22.479 29.3264 22.5138 29.4106C22.5486 29.4948 22.5997 29.5713 22.6641 29.6358C22.7284 29.7002 22.8049 29.7514 22.8891 29.7863C22.9733 29.8211 23.0635 29.8391 23.1546 29.8391H25.9307C26.0218 29.8391 26.1121 29.8212 26.1963 29.7863C26.2805 29.7514 26.357 29.7003 26.4214 29.6358C26.4859 29.5714 26.537 29.4949 26.5719 29.4107C26.6067 29.3264 26.6247 29.2362 26.6247 29.145V23.2462C26.6247 23.1551 26.6067 23.0648 26.5718 22.9807C26.537 22.8965 26.4858 22.82 26.4214 22.7556C26.3569 22.6912 26.2804 22.6402 26.1962 22.6053C26.112 22.5705 26.0218 22.5527 25.9307 22.5527" fill="#5C5787"/>
<path d="M23.8461 29.145V23.2462C23.8461 23.1551 23.8641 23.0648 23.8989 22.9807C23.9338 22.8965 23.985 22.82 24.0494 22.7556C24.1139 22.6912 24.1904 22.6402 24.2746 22.6053C24.3588 22.5705 24.449 22.5527 24.5401 22.5527H23.1521C22.9686 22.5532 22.7927 22.6265 22.6632 22.7565C22.5337 22.8865 22.461 23.0626 22.4612 23.2462V29.145C22.4611 29.2362 22.479 29.3264 22.5138 29.4106C22.5486 29.4948 22.5997 29.5713 22.6641 29.6358C22.7284 29.7002 22.8049 29.7514 22.8891 29.7863C22.9733 29.8211 23.0635 29.8391 23.1546 29.8391H24.5426C24.4515 29.8391 24.3612 29.8212 24.277 29.7863C24.1928 29.7514 24.1163 29.7003 24.0519 29.6358C23.9874 29.5714 23.9363 29.4949 23.9014 29.4107C23.8666 29.3264 23.8486 29.2362 23.8486 29.145" fill="#3E3C5E"/>
<path d="M20.6947 21.9633H22.0017C22.0266 21.9633 22.0512 21.9579 22.0738 21.9476C22.0965 21.9372 22.1167 21.9221 22.133 21.9033C22.1493 21.8845 22.1614 21.8624 22.1685 21.8385C22.1755 21.8146 22.1774 21.7895 22.1739 21.7648L22.0241 20.7237C22.0181 20.6825 21.9975 20.6448 21.966 20.6175C21.9345 20.5902 21.8942 20.5752 21.8525 20.5752H20.6947C20.6719 20.5751 20.6493 20.5795 20.6283 20.5882C20.6072 20.5969 20.588 20.6097 20.5719 20.6258C20.5557 20.642 20.543 20.6611 20.5343 20.6822C20.5256 20.7033 20.5212 20.7259 20.5212 20.7487V21.7898C20.5212 21.8358 20.5395 21.88 20.5721 21.9125C20.6046 21.945 20.6487 21.9633 20.6947 21.9633" fill="#5C5787"/>
<path d="M17.3327 21.9633H18.6671C18.713 21.9631 18.7571 21.9448 18.7896 21.9123C18.8221 21.8798 18.8404 21.8358 18.8406 21.7898V20.7487C18.8406 20.7027 18.8223 20.6586 18.7897 20.626C18.7572 20.5935 18.7131 20.5752 18.6671 20.5752H17.3327C17.2867 20.5752 17.2425 20.5935 17.21 20.626C17.1775 20.6586 17.1592 20.7027 17.1592 20.7487V21.7898C17.1593 21.8358 17.1777 21.8798 17.2102 21.9123C17.2427 21.9448 17.2867 21.9631 17.3327 21.9633" fill="#5C5787"/>
<path d="M15.3049 20.5752H14.1477C14.1061 20.5752 14.0658 20.5902 14.0343 20.6175C14.0027 20.6448 13.9821 20.6825 13.9761 20.7237L13.8257 21.7648C13.8222 21.7894 13.824 21.8145 13.8311 21.8384C13.8381 21.8622 13.8501 21.8843 13.8664 21.9031C13.8827 21.9219 13.9028 21.937 13.9253 21.9474C13.9479 21.9578 13.9725 21.9632 13.9973 21.9633H15.308C15.3539 21.9631 15.398 21.9448 15.4305 21.9123C15.463 21.8798 15.4813 21.8358 15.4815 21.7898V20.7487C15.4815 20.7027 15.4632 20.6586 15.4307 20.626C15.3981 20.5935 15.354 20.5752 15.308 20.5752" fill="#5C5787"/>
<path d="M13.5412 28.1992H9.37769V28.7042H13.5412V28.1992Z" fill="#3E3C5E"/>
<path d="M13.5412 23.6885H9.37769V24.1934H13.5412V23.6885Z" fill="#3E3C5E"/>
<path d="M13.5412 25.9434H9.37769V26.4483H13.5412V25.9434Z" fill="#3E3C5E"/>
<path d="M26.622 28.1992H22.4585V28.7042H26.622V28.1992Z" fill="#3E3C5E"/>
<path d="M26.6215 23.6885H22.458V24.1934H26.6215V23.6885Z" fill="#3E3C5E"/>
<path d="M26.6215 25.9434H22.458V26.4483H26.6215V25.9434Z" fill="#3E3C5E"/>
<path d="M16.1681 15.5211C16.1019 15.5211 16.0384 15.4948 15.9916 15.448C15.9448 15.4012 15.9185 15.3377 15.9185 15.2715V14.9195C15.9185 14.8525 15.9451 14.7883 15.9924 14.7409C16.0397 14.6936 16.104 14.667 16.1709 14.667C16.2379 14.667 16.3021 14.6936 16.3494 14.7409C16.3968 14.7883 16.4234 14.8525 16.4234 14.9195V15.2715C16.4234 15.3047 16.4167 15.3377 16.4038 15.3683C16.3909 15.399 16.3721 15.4268 16.3483 15.45C16.3245 15.4733 16.2963 15.4916 16.2654 15.5038C16.2344 15.516 16.2014 15.5219 16.1681 15.5211ZM20.0845 15.2715V14.9195C20.0845 14.8525 20.0579 14.7883 20.0105 14.7409C19.9632 14.6936 19.899 14.667 19.832 14.667C19.7651 14.667 19.7008 14.6936 19.6535 14.7409C19.6061 14.7883 19.5795 14.8525 19.5795 14.9195V15.2715C19.5795 15.3384 19.6061 15.4027 19.6535 15.45C19.7008 15.4974 19.7651 15.524 19.832 15.524C19.899 15.524 19.9632 15.4974 20.0105 15.45C20.0579 15.4027 20.0845 15.3384 20.0845 15.2715ZM18.6733 15.4269C18.7174 15.3764 18.7395 15.3105 18.735 15.2437C18.7304 15.1768 18.6995 15.1145 18.649 15.0705C18.5985 15.0265 18.5326 15.0043 18.4658 15.0089C18.3989 15.0134 18.3366 15.0444 18.2926 15.0948C18.2562 15.1368 18.2113 15.1704 18.1608 15.1934C18.1103 15.2165 18.0554 15.2284 17.9999 15.2284C17.9444 15.2284 17.8895 15.2165 17.839 15.1934C17.7885 15.1704 17.7436 15.1368 17.7072 15.0948C17.6854 15.0698 17.6589 15.0494 17.6292 15.0346C17.5995 15.0199 17.5671 15.0111 17.534 15.0089C17.5009 15.0066 17.4677 15.0109 17.4363 15.0215C17.4049 15.032 17.3758 15.0487 17.3508 15.0705C17.3258 15.0923 17.3054 15.1188 17.2906 15.1485C17.2759 15.1782 17.2671 15.2106 17.2648 15.2437C17.2626 15.2768 17.2669 15.31 17.2774 15.3414C17.288 15.3729 17.3047 15.4019 17.3265 15.4269C17.4102 15.5233 17.5136 15.6006 17.6298 15.6536C17.746 15.7066 17.8722 15.734 17.9999 15.734C18.1276 15.734 18.2538 15.7066 18.37 15.6536C18.4862 15.6006 18.5896 15.5233 18.6733 15.4269V15.4269Z" fill="#3E3C5E"/>
<path d="M19.8922 25.1824C19.8922 24.1572 19.0612 23.3262 18.0361 23.3262C17.011 23.3262 16.1799 24.1572 16.1799 25.1824C16.1799 26.2076 17.011 27.0386 18.0361 27.0386C19.0612 27.0386 19.8922 26.2076 19.8922 25.1824Z" fill="#3E3C5E"/>
<path d="M16.7846 11.4639H19.2149C19.6317 11.4639 19.9695 11.126 19.9695 10.7093V9.14139C19.9695 8.72464 19.6317 8.38679 19.2149 8.38679H16.7846C16.3679 8.38679 16.03 8.72464 16.03 9.14139V10.7093C16.03 11.126 16.3679 11.4639 16.7846 11.4639Z" fill="#E3838C"/>
<path d="M16.7833 10.4961H19.2162C19.6322 10.4961 19.9695 10.1588 19.9695 9.74274V8.18298C19.9695 7.76692 19.6322 7.42963 19.2162 7.42963H16.7833C16.3673 7.42963 16.03 7.76692 16.03 8.18298V9.74274C16.03 10.1588 16.3673 10.4961 16.7833 10.4961Z" fill="#DC646F"/>
<path d="M14.8937 7.02826L17.6361 4.2851C17.7328 4.18882 17.8636 4.13477 18 4.13477C18.1364 4.13477 18.2672 4.18882 18.3639 4.2851L21.1062 7.03138C21.1783 7.1033 21.2273 7.19498 21.2472 7.2948C21.2671 7.39463 21.2569 7.4981 21.2179 7.59213C21.179 7.68616 21.113 7.76652 21.0283 7.82302C20.9437 7.87953 20.8442 7.90965 20.7424 7.90956H15.257C15.1546 7.91015 15.0544 7.88017 14.9692 7.82347C14.8839 7.76676 14.8176 7.68591 14.7786 7.59126C14.7395 7.4966 14.7297 7.39246 14.7502 7.29216C14.7707 7.19187 14.8207 7.09997 14.8937 7.02826V7.02826Z" fill="#C44958"/>
<path d="M16.6354 9.42578H19.3641C19.6984 9.42578 19.9695 9.15472 19.9695 8.82035V8.05264C19.9695 7.71827 19.6984 7.44721 19.3641 7.44721H16.6354C16.3011 7.44721 16.03 7.71827 16.03 8.05264V8.82035C16.03 9.15472 16.3011 9.42578 16.6354 9.42578Z" fill="#C44958"/>
</g>
<defs>
<clipPath id="clip0_185_1599">
<rect width="36" height="36" fill="white"/>
</clipPath>
</defs>
</svg>
