<svg width="36" height="37" viewBox="0 0 36 37" fill="none" xmlns="http://www.w3.org/2000/svg">
<g clip-path="url(#clip0_185_1693)">
<path d="M15.4282 27.6614C15.4282 27.1195 15.4282 26.5776 15.4282 26.0397C16.1295 26.0397 16.8307 26.0198 17.528 26.0397C17.8348 26.0397 17.9264 25.9521 17.9264 25.6413C17.9264 23.0315 17.9264 20.4217 17.9264 17.812H21.875C23.8592 17.812 25.8514 17.812 27.8515 17.812C28.941 17.7961 29.9922 18.2137 30.7738 18.9729C31.5554 19.7321 32.0034 20.7706 32.0192 21.8601C32.0351 22.9496 31.6175 24.0007 30.8583 24.7823C30.0991 25.5639 29.0606 26.0119 27.9711 26.0278C25.5565 26.0278 23.142 26.0278 20.7275 26.0278C20.4645 26.0278 20.3888 26.1035 20.4087 26.3625C20.4326 26.6954 20.4326 27.0296 20.4087 27.3625C20.4087 27.6375 20.4964 27.6972 20.7474 27.6853V27.6853C22.3549 27.5673 23.775 28.6137 24.5828 30.0085C25.63 31.8167 26.4463 33.9217 26.7727 34.4063C27.2366 35.0951 27.4855 35.9062 27.4877 36.7367C27.4931 36.8446 27.4765 36.9526 27.4389 37.0539C27.4012 37.1552 27.3434 37.2478 27.2689 37.3261C27.1943 37.4044 27.1046 37.4667 27.0053 37.5092C26.9059 37.5517 26.7989 37.5735 26.6908 37.5734C24.4874 37.5734 20.1378 37.8989 17.9344 37.8989C17.9344 36.3489 17.9344 34.795 17.9344 28.0239C17.9344 27.757 17.8786 27.6574 17.5917 27.6654C16.8467 27.6773 16.1374 27.6614 15.4282 27.6614ZM24.4768 21.0911C23.401 21.0911 22.3212 21.0911 21.2454 21.0911C21.1292 21.0797 21.0119 21.0928 20.9011 21.1295C20.7902 21.1661 20.6883 21.2256 20.6018 21.304C20.5153 21.3825 20.4462 21.4781 20.3989 21.5849C20.3516 21.6916 20.3272 21.8071 20.3272 21.9238C20.3272 22.0406 20.3516 22.1561 20.3989 22.2628C20.4462 22.3696 20.5153 22.4652 20.6018 22.5437C20.6883 22.6221 20.7902 22.6816 20.9011 22.7182C21.0119 22.7549 21.1292 22.768 21.2454 22.7566H27.736C27.937 22.7627 28.1344 22.7025 28.2978 22.5853C28.4407 22.4869 28.5476 22.3445 28.6023 22.1799C28.657 22.0152 28.6564 21.8371 28.6006 21.6728C28.5451 21.4962 28.4323 21.3431 28.28 21.2378C28.1278 21.1324 27.9448 21.0808 27.7599 21.0911C26.6602 21.0871 25.5725 21.0911 24.4768 21.0911Z" fill="#3E3C5E"/>
<path d="M18.0873 17.8235C18.0873 20.4333 18.0873 23.0431 18.0873 25.6528C18.0873 25.9517 18.0155 26.0513 17.6888 26.0513C16.9916 26.0314 16.2903 26.0513 15.589 26.0513C13.1068 26.0513 10.6205 26.0513 8.13425 26.0513C7.59532 26.0578 7.06037 25.9581 6.55996 25.7579C6.05955 25.5578 5.60346 25.2609 5.21775 24.8845C4.43878 24.1242 3.99374 23.0856 3.98053 21.9972C3.96732 20.9087 4.38703 19.8596 5.14732 19.0807C5.90762 18.3017 6.94621 17.8566 8.03464 17.8434C11.4015 17.7956 14.7444 17.8235 18.0873 17.8235ZM14.7842 22.7482C14.9482 22.7538 15.1102 22.7103 15.2493 22.6232C15.3885 22.5362 15.4985 22.4097 15.5654 22.2598C15.6322 22.1099 15.6528 21.9435 15.6245 21.7818C15.5962 21.6201 15.5204 21.4706 15.4066 21.3523C15.2928 21.234 15.1464 21.1523 14.9859 21.1177C14.8255 21.0831 14.6584 21.0971 14.506 21.1581C14.3536 21.219 14.2228 21.3239 14.1304 21.4596C14.038 21.5952 13.9882 21.7553 13.9873 21.9195C13.9937 22.1318 14.0788 22.3342 14.2261 22.4874C14.3733 22.6405 14.5723 22.7335 14.7842 22.7482V22.7482ZM8.98293 21.9274C8.9837 21.7613 8.93499 21.5986 8.84299 21.4603C8.75099 21.3219 8.61988 21.2141 8.46636 21.1505C8.31284 21.0869 8.14387 21.0705 7.98098 21.1033C7.81809 21.1361 7.66865 21.2167 7.55173 21.3347C7.4348 21.4528 7.35567 21.603 7.32442 21.7662C7.29317 21.9294 7.31123 22.0982 7.37627 22.2511C7.44132 22.404 7.55043 22.5341 7.68967 22.6247C7.82892 22.7154 7.99201 22.7625 8.15816 22.7602C8.37357 22.7459 8.57634 22.6534 8.72826 22.5C8.88018 22.3466 8.97076 22.143 8.98293 21.9274V21.9274ZM12.3059 21.9274C12.2989 21.7716 12.2463 21.6212 12.1545 21.4949C12.0628 21.3687 11.936 21.2721 11.79 21.2173C11.6439 21.1624 11.4849 21.1517 11.3327 21.1863C11.1806 21.221 11.042 21.2996 10.9341 21.4124C10.8262 21.5251 10.7538 21.667 10.7259 21.8206C10.6979 21.9741 10.7156 22.1324 10.7769 22.276C10.8381 22.4195 10.9401 22.5419 11.0703 22.628C11.2004 22.714 11.353 22.76 11.509 22.7602C11.7264 22.7529 11.9321 22.66 12.0813 22.5018C12.2306 22.3436 12.3113 22.1329 12.3059 21.9155V21.9274Z" fill="#5C5787"/>
<path d="M15.6209 27.6611C16.3301 27.6611 17.0394 27.6611 17.7446 27.6611C18.0315 27.6611 18.0912 27.7528 18.0872 28.0197C18.0872 29.5697 18.0872 35.3273 18.0872 36.8772C15.8958 36.8772 11.9025 36.8772 9.7111 36.8772C9.59789 36.8827 9.48482 36.864 9.37942 36.8223C9.27403 36.7806 9.17875 36.7169 9.09993 36.6354C9.02112 36.554 8.96058 36.4566 8.92238 36.3499C8.88417 36.2432 8.86917 36.1296 8.87837 36.0166C8.88342 35.5713 8.95939 35.134 9.09993 34.7198C9.30393 34.1186 11.4459 29.3624 11.9025 28.9049C12.6737 28.1322 13.7165 27.6916 14.8081 27.6771L15.6209 27.6611Z" fill="#5C5787"/>
<path d="M18.0872 4.60765C19.6848 4.57672 21.2716 4.8751 22.7489 5.48421C24.2718 6.10076 25.6523 7.02286 26.805 8.1936C26.9383 8.31407 27.027 8.47605 27.0566 8.65325C27.0863 8.83045 27.0552 9.01247 26.9684 9.16977C26.8817 9.32894 26.7464 9.4562 26.5822 9.53291C26.418 9.60963 26.2336 9.63177 26.0559 9.5961C25.902 9.55403 25.7636 9.46822 25.6575 9.34907C24.7424 8.4615 23.6835 7.73536 22.5258 7.20149C21.3382 6.65972 20.0598 6.34485 18.7565 6.27312C18.5374 6.27312 18.3222 6.22929 18.1031 6.20937L18.0872 4.60765Z" fill="#C44958"/>
<path d="M18.0872 4.60758V6.20134C17.1369 6.23648 16.1929 6.37 15.2702 6.59978C13.6721 7.0358 12.1975 7.83791 10.9631 8.9426L10.4969 9.34104C10.4204 9.41614 10.3296 9.47504 10.2299 9.51423C10.1301 9.55341 10.0235 9.57208 9.91637 9.5691C9.80924 9.56613 9.70382 9.54157 9.6064 9.49691C9.50898 9.45225 9.42157 9.38839 9.3494 9.30917C9.20654 9.1571 9.12901 8.95507 9.13348 8.74647C9.13795 8.53787 9.22406 8.33934 9.3733 8.19353C10.81 6.7381 12.592 5.67028 14.553 5.08969C15.7004 4.75361 16.8917 4.59111 18.0872 4.60758V4.60758Z" fill="#DC646F"/>
<path d="M18.0872 7.89443C19.6083 7.86266 21.1099 8.24115 22.4342 8.99013C23.1419 9.3748 23.7934 9.85475 24.3706 10.4165C24.8049 10.815 24.8527 11.3369 24.4902 11.7075C24.4037 11.7871 24.3022 11.8486 24.1917 11.8884C24.0811 11.9281 23.9637 11.9454 23.8463 11.939C23.729 11.9327 23.6141 11.903 23.5085 11.8516C23.4028 11.8002 23.3085 11.7282 23.2311 11.6398C22.1032 10.5342 20.6456 9.82644 19.0793 9.62365C18.7486 9.57982 18.4179 9.5599 18.0833 9.52802L18.0872 7.89443Z" fill="#C44958"/>
<path d="M18.0872 7.895V9.51665C16.9136 9.53021 15.7589 9.81379 14.7124 10.3454C14.0784 10.6699 13.4958 11.0861 12.9832 11.5806C12.8092 11.7789 12.5649 11.9018 12.3019 11.9232C12.1362 11.9372 11.9703 11.899 11.8274 11.814C11.6845 11.729 11.5718 11.6014 11.505 11.4491C11.4303 11.2903 11.4101 11.1112 11.4476 10.9397C11.485 10.7683 11.5781 10.614 11.7122 10.5008C13.3845 8.83724 15.6409 7.89348 17.9996 7.87109C18.0296 7.87569 18.059 7.88371 18.0872 7.895Z" fill="#DC646F"/>
<path d="M18.0872 11.2381C18.8349 11.2146 19.5795 11.3438 20.2755 11.6179C20.9715 11.8919 21.6044 12.3049 22.1354 12.8318C22.2171 12.9021 22.2837 12.9882 22.3312 13.085C22.3787 13.1817 22.4061 13.2871 22.4117 13.3948C22.4173 13.5024 22.401 13.6101 22.3637 13.7112C22.3265 13.8124 22.2692 13.9049 22.1951 13.9833C22.1235 14.0709 22.0341 14.1423 21.9327 14.1926C21.8314 14.243 21.7205 14.2711 21.6074 14.2753C21.4943 14.2794 21.3816 14.2594 21.2769 14.2167C21.1721 14.1739 21.0777 14.1093 20.9998 14.0271C20.4344 13.4996 19.7361 13.136 18.9797 12.9753C18.6834 12.92 18.3841 12.8827 18.0833 12.8637L18.0872 11.2381Z" fill="#C44958"/>
<path d="M18.0873 11.238V12.8318C17.0023 12.8413 15.9609 13.2596 15.1707 14.0032C15.0922 14.0741 15.0006 14.1288 14.9009 14.1643C14.8013 14.1998 14.6956 14.2152 14.59 14.2099C14.4844 14.2045 14.3808 14.1784 14.2853 14.133C14.1897 14.0876 14.1041 14.0239 14.0332 13.9454C13.9623 13.8669 13.9075 13.7752 13.8721 13.6756C13.8366 13.576 13.8211 13.4703 13.8265 13.3647C13.8318 13.259 13.858 13.1555 13.9033 13.06C13.9487 12.9644 14.0125 12.8788 14.091 12.8079C14.6187 12.2928 15.2441 11.8886 15.9304 11.619C16.6168 11.3493 17.3501 11.2198 18.0873 11.238V11.238Z" fill="#DC646F"/>
<path d="M18.0872 14.4927C18.7203 14.4795 19.3336 14.714 19.7965 15.1462C19.8798 15.2135 19.9487 15.297 19.999 15.3916C20.0494 15.4862 20.0801 15.59 20.0894 15.6967C20.0987 15.8035 20.0864 15.911 20.0531 16.0129C20.0199 16.1148 19.9665 16.2089 19.8961 16.2897C19.8301 16.3775 19.7467 16.4507 19.6511 16.5047C19.5555 16.5587 19.4497 16.5924 19.3405 16.6036C19.2312 16.6149 19.1208 16.6034 19.0162 16.5699C18.9116 16.5365 18.8151 16.4818 18.7326 16.4092C18.5409 16.2669 18.3208 16.1677 18.0872 16.1183V14.4927Z" fill="#C44958"/>
<path d="M18.0873 14.4925V16.1182C17.8496 16.1515 17.6259 16.2509 17.4419 16.405C17.3568 16.4744 17.2587 16.5262 17.1534 16.5572C17.0481 16.5882 16.9376 16.5978 16.8285 16.5856C16.7194 16.5733 16.6138 16.5394 16.518 16.4858C16.4222 16.4323 16.338 16.3601 16.2704 16.2736C16.1375 16.1097 16.0751 15.8997 16.0967 15.6899C16.1184 15.48 16.2224 15.2872 16.386 15.1539C16.6101 14.9343 16.8764 14.7625 17.1688 14.6488C17.4613 14.5351 17.7737 14.4819 18.0873 14.4925V14.4925Z" fill="#DC646F"/>
<path d="M24.4769 21.0909C25.5726 21.0909 26.6723 21.0909 27.768 21.0909C27.9528 21.0806 28.1358 21.1322 28.2881 21.2376C28.4403 21.3429 28.5531 21.496 28.6087 21.6726C28.6644 21.8369 28.665 22.015 28.6104 22.1796C28.5557 22.3443 28.4488 22.4867 28.3059 22.585C28.1425 22.7022 27.945 22.7624 27.7441 22.7564H21.2535C21.1373 22.7678 21.02 22.7547 20.9091 22.718C20.7983 22.6813 20.6963 22.6219 20.6098 22.5435C20.5234 22.465 20.4542 22.3694 20.4069 22.2626C20.3596 22.1559 20.3352 22.0404 20.3352 21.9236C20.3352 21.8069 20.3596 21.6914 20.4069 21.5847C20.4542 21.4779 20.5234 21.3823 20.6098 21.3038C20.6963 21.2254 20.7983 21.1659 20.9091 21.1293C21.02 21.0926 21.1373 21.0795 21.2535 21.0909C22.3213 21.0869 23.4011 21.0909 24.4769 21.0909Z" fill="#AB9DFF"/>
<path d="M14.7842 22.7482C14.6201 22.7473 14.4599 22.6974 14.3243 22.605C14.1887 22.5126 14.0837 22.3819 14.0228 22.2295C13.9619 22.0771 13.9478 21.91 13.9824 21.7495C14.017 21.5891 14.0987 21.4426 14.217 21.3289C14.3353 21.2151 14.4848 21.1393 14.6465 21.111C14.8082 21.0827 14.9746 21.1033 15.1245 21.1701C15.2744 21.2369 15.4009 21.347 15.488 21.4861C15.575 21.6253 15.6185 21.7873 15.6129 21.9513C15.5991 22.1635 15.5064 22.363 15.3531 22.5104C15.1997 22.6578 14.9968 22.7426 14.7842 22.7482V22.7482Z" fill="#AB9DFF"/>
<path d="M8.983 21.9276C8.98202 22.0946 8.9311 22.2574 8.83679 22.3952C8.74249 22.533 8.60912 22.6394 8.45383 22.7008C8.29854 22.7622 8.12845 22.7757 7.96542 22.7396C7.80239 22.7035 7.65389 22.6195 7.53902 22.4983C7.42416 22.3771 7.34817 22.2243 7.32085 22.0596C7.29353 21.8949 7.31611 21.7257 7.3857 21.5739C7.45529 21.4222 7.5687 21.2947 7.71134 21.2079C7.85399 21.1211 8.01934 21.0789 8.18612 21.0869C8.39816 21.1069 8.59574 21.2032 8.74226 21.3578C8.88878 21.5123 8.97431 21.7148 8.983 21.9276Z" fill="#F1F0FF"/>
<path d="M12.3059 21.916C12.3059 22.0736 12.2592 22.2277 12.1716 22.3587C12.0841 22.4898 11.9596 22.5919 11.814 22.6522C11.6684 22.7126 11.5082 22.7283 11.3536 22.6976C11.199 22.6668 11.057 22.5909 10.9456 22.4795C10.8341 22.368 10.7582 22.2261 10.7275 22.0715C10.6967 21.9169 10.7125 21.7567 10.7728 21.6111C10.8331 21.4655 10.9353 21.341 11.0663 21.2534C11.1974 21.1659 11.3514 21.1191 11.509 21.1191C11.7182 21.1261 11.9168 21.2123 12.0648 21.3603C12.2128 21.5082 12.299 21.7069 12.3059 21.916V21.916Z" fill="#CDC4FF"/>
</g>
<defs>
<clipPath id="clip0_185_1693">
<rect width="36" height="36" fill="white" transform="translate(0 0.459961)"/>
</clipPath>
</defs>
</svg>
