<svg width="36" height="37" viewBox="0 0 36 37" fill="none" xmlns="http://www.w3.org/2000/svg">
<path d="M21.8497 20.4463C23.822 20.4463 25.7978 20.4463 27.7736 20.4463C28.1634 20.4704 28.529 20.6433 28.7949 20.9293C29.0608 21.2153 29.2067 21.5925 29.2024 21.983C29.2186 24.1435 29.2186 26.3017 29.2024 28.4575C29.2033 28.6614 29.1638 28.8635 29.0862 29.052C29.0086 29.2406 28.8944 29.4119 28.7502 29.5561C28.6061 29.7003 28.4347 29.8144 28.2462 29.892C28.0576 29.9696 27.8556 30.0091 27.6517 30.0082C25.756 30.0291 23.8604 30.0082 21.9647 30.0082C21.8149 29.949 21.6615 29.8967 21.5152 29.827C20.8183 29.4785 20.6371 28.8757 20.6301 28.1857C20.6161 26.2157 20.6161 24.2411 20.6301 22.2618C20.6187 21.9325 20.6819 21.605 20.8148 21.3035C21.0457 20.9028 21.413 20.5986 21.8497 20.4463V20.4463ZM24.4005 25.8301H27.021C27.138 25.8338 27.255 25.8233 27.3694 25.7987C27.5057 25.7584 27.6229 25.6703 27.6997 25.5507C27.7765 25.4311 27.8077 25.2878 27.7876 25.1471C27.7634 24.9808 27.6743 24.8309 27.5397 24.7303C27.4051 24.6296 27.2361 24.5866 27.0697 24.6105C25.2926 24.6105 23.5119 24.6105 21.7347 24.6105C21.569 24.5997 21.4045 24.6452 21.2678 24.7394C21.1589 24.8145 21.0789 24.9245 21.0409 25.0512C21.0029 25.1778 21.0092 25.3137 21.0587 25.4363C21.0954 25.5638 21.1752 25.6745 21.2846 25.7495C21.3939 25.8245 21.526 25.8592 21.6581 25.8475L24.4005 25.8301Z" fill="#5C5787"/>
<path d="M9.17248 7.6084C11.0612 7.6084 12.9464 7.6084 14.8351 7.6084C15.0383 7.60882 15.2395 7.64974 15.4267 7.72878C15.614 7.80782 15.7836 7.92339 15.9257 8.06873C16.0678 8.21407 16.1796 8.38628 16.2543 8.57528C16.3291 8.76429 16.3655 8.96631 16.3613 9.16953C16.3753 11.3207 16.3753 13.4708 16.3613 15.6196C16.3671 15.825 16.3309 16.0294 16.2551 16.2203C16.1792 16.4112 16.0653 16.5847 15.9202 16.7301C15.7751 16.8756 15.6019 16.9899 15.4111 17.0662C15.2203 17.1425 15.016 17.1791 14.8107 17.1738C12.8941 17.1738 10.9775 17.1738 9.06097 17.1738C9.03658 17.1738 9.01916 17.132 8.99128 17.125C8.65446 17.0386 8.35681 16.8407 8.14675 16.5636C7.9367 16.2864 7.8266 15.9464 7.83437 15.5987C7.83437 13.4499 7.83437 11.2998 7.83437 9.14862C7.83428 8.94492 7.87951 8.74376 7.96679 8.55971C8.08172 8.31957 8.25015 8.10895 8.45916 7.94404C8.66817 7.77913 8.91219 7.66431 9.17248 7.6084V7.6084ZM11.5734 13.034H14.1625C14.2687 13.0376 14.3749 13.0306 14.4796 13.0131C14.5556 13.0005 14.6282 12.9729 14.6934 12.932C14.7586 12.8911 14.815 12.8376 14.8594 12.7748C14.9038 12.7119 14.9353 12.6408 14.9521 12.5657C14.9688 12.4906 14.9705 12.4129 14.957 12.3371C14.9548 12.2636 14.938 12.1912 14.9077 12.1242C14.8773 12.0572 14.834 11.9968 14.7802 11.9466C14.7265 11.8964 14.6633 11.8573 14.5944 11.8316C14.5254 11.806 14.4521 11.7942 14.3786 11.797C12.5201 11.797 10.6616 11.797 8.80311 11.797C8.67897 11.7897 8.55597 11.8242 8.45368 11.895C8.3514 11.9657 8.27569 12.0686 8.23859 12.1872C8.07133 12.6333 8.37449 13.0096 8.91462 13.0131C9.80321 13.034 10.6779 13.0131 11.5734 13.034ZM11.6083 9.60163C11.528 9.59881 11.4479 9.61225 11.373 9.64115C11.298 9.67005 11.2297 9.71381 11.1721 9.7698C11.1145 9.82578 11.0688 9.89284 11.0377 9.96694C11.0067 10.041 10.991 10.1207 10.9915 10.201C10.9851 10.2847 10.9961 10.3688 11.0238 10.4481C11.0515 10.5274 11.0953 10.6001 11.1524 10.6617C11.2094 10.7232 11.2786 10.7723 11.3556 10.8059C11.4325 10.8395 11.5156 10.8569 11.5995 10.8569C11.6835 10.8569 11.7666 10.8395 11.8435 10.8059C11.9205 10.7723 11.9897 10.7232 12.0467 10.6617C12.1038 10.6001 12.1476 10.5274 12.1753 10.4481C12.203 10.3688 12.214 10.2847 12.2076 10.201C12.2115 10.1205 12.1987 10.04 12.1702 9.96457C12.1416 9.88916 12.0979 9.82042 12.0417 9.76259C11.9855 9.70477 11.9181 9.6591 11.8435 9.62841C11.7689 9.59773 11.6889 9.58268 11.6083 9.5842V9.60163ZM11.6083 14.0376C11.5283 14.0362 11.4489 14.0507 11.3746 14.0801C11.3003 14.1095 11.2325 14.1533 11.1752 14.209C11.1179 14.2647 11.0721 14.3312 11.0406 14.4046C11.0091 14.4781 10.9924 14.557 10.9915 14.637C10.9915 14.7987 11.0557 14.9538 11.1701 15.0682C11.2844 15.1825 11.4396 15.2468 11.6013 15.2468C11.763 15.2468 11.9181 15.1825 12.0325 15.0682C12.1469 14.9538 12.2111 14.7987 12.2111 14.637C12.2125 14.5556 12.1975 14.4747 12.167 14.3993C12.1365 14.3238 12.0912 14.2552 12.0336 14.1977C11.9761 14.1401 11.9075 14.0947 11.832 14.0642C11.7565 14.0337 11.6757 14.0188 11.5943 14.0202L11.6083 14.0376Z" fill="#5C5787"/>
<path d="M21.9611 7.6084C23.8603 7.6084 25.7559 7.6084 27.6516 7.6084C27.8552 7.60794 28.0569 7.64776 28.245 7.72557C28.4332 7.80338 28.6041 7.91764 28.7479 8.06177C28.8917 8.2059 29.0056 8.37706 29.083 8.56538C29.1603 8.7537 29.1997 8.95547 29.1988 9.15908C29.2197 11.3196 29.2197 13.4789 29.1988 15.6371C29.2002 15.84 29.1612 16.0412 29.0841 16.2289C29.0069 16.4167 28.8932 16.5872 28.7495 16.7305C28.6059 16.8739 28.4351 16.9872 28.2472 17.0639C28.0593 17.1406 27.858 17.1791 27.6551 17.1773C25.7211 17.1773 23.7836 17.1773 21.8496 17.1773C20.8879 16.8288 20.6091 16.0657 20.6195 15.1109C20.6195 13.2466 20.6195 11.3823 20.6195 9.53542C20.61 9.21517 20.6608 8.89599 20.7694 8.59456C20.8732 8.34589 21.0359 8.1262 21.2436 7.9544C21.4512 7.78261 21.6974 7.66386 21.9611 7.6084ZM25.0137 14.2014C25.0137 13.8912 25.0137 13.5776 25.0137 13.2675C25.0137 13.0549 25.0869 13.0061 25.2855 13.0096C25.8884 13.0096 26.4912 13.0096 27.0941 13.0096C27.5262 13.0096 27.791 12.7552 27.791 12.3963C27.791 12.0374 27.5157 11.7935 27.0941 11.7935C26.4877 11.7935 25.8849 11.7935 25.282 11.7935C25.0834 11.7935 25.0102 11.7412 25.0137 11.5321C25.0137 10.9119 25.0137 10.2881 25.0137 9.66435C25.024 9.53678 24.993 9.40926 24.9252 9.30069C24.8575 9.19211 24.7565 9.10824 24.6374 9.06151C24.1983 8.8803 23.8045 9.1765 23.7941 9.70965C23.7941 10.3125 23.7941 10.9153 23.7941 11.5182C23.7941 11.7447 23.7279 11.8005 23.5118 11.797C22.909 11.797 22.3061 11.797 21.7033 11.797C21.6162 11.7897 21.5285 11.7998 21.4453 11.8267C21.3622 11.8536 21.2852 11.8968 21.2189 11.9538C21.1257 12.0346 21.0607 12.143 21.0331 12.2633C21.0055 12.3836 21.0169 12.5095 21.0656 12.6228C21.1118 12.7479 21.1979 12.8543 21.3107 12.9255C21.4235 12.9967 21.5565 13.0287 21.6893 13.0166C22.2922 13.0166 22.895 13.0166 23.4979 13.0166C23.7244 13.0166 23.801 13.0724 23.7941 13.3058C23.7801 13.9191 23.7801 14.5324 23.7941 15.1457C23.7876 15.229 23.7989 15.3128 23.8271 15.3914C23.8553 15.4701 23.8998 15.5419 23.9577 15.6021C24.0157 15.6623 24.0857 15.7096 24.1632 15.7409C24.2407 15.7721 24.3239 15.7866 24.4074 15.7834C24.4923 15.7866 24.5768 15.7713 24.6552 15.7385C24.7336 15.7058 24.8039 15.6564 24.8613 15.5937C24.9186 15.531 24.9617 15.4566 24.9874 15.3757C25.0131 15.2947 25.0209 15.2091 25.0102 15.1248C25.0172 14.8251 25.0137 14.5115 25.0137 14.2014Z" fill="#DC646F"/>
<path d="M9.06095 20.4456H10.082C11.6082 20.4456 13.1345 20.4456 14.6643 20.4456C14.8935 20.4253 15.1243 20.4555 15.3405 20.5342C15.5567 20.6129 15.753 20.738 15.9156 20.9009C16.0781 21.0638 16.2029 21.2603 16.2811 21.4767C16.3593 21.693 16.3891 21.9239 16.3683 22.1531C16.3683 24.2067 16.3683 26.2603 16.3683 28.314C16.3872 28.5433 16.356 28.774 16.277 28.9901C16.1979 29.2062 16.0729 29.4025 15.9105 29.5656C15.7481 29.7286 15.5523 29.8544 15.3365 29.9343C15.1208 30.0143 14.8902 30.0464 14.6608 30.0284C12.8314 30.0284 11.0019 30.0284 9.17246 30.0284C9.14197 30.007 9.10767 29.9917 9.07141 29.9831C8.40235 29.896 7.80996 29.0457 7.82042 28.3976C7.85526 26.2754 7.82042 24.1533 7.82042 22.0346C7.81603 21.908 7.82893 21.7814 7.85875 21.6583C7.93139 21.3666 8.08144 21.1 8.29304 20.8866C8.50464 20.6731 8.76995 20.5208 9.06095 20.4456ZM9.00172 27.1989C9.00492 27.3122 9.03909 27.4224 9.10052 27.5176C9.16196 27.6128 9.2483 27.6894 9.35018 27.739C9.46436 27.7995 9.59585 27.8191 9.72269 27.7943C9.84953 27.7696 9.96405 27.7021 10.0471 27.6031C10.5001 27.1605 10.9531 26.718 11.3887 26.2615C11.5316 26.1082 11.6117 26.1186 11.7372 26.2615C12.1623 26.7041 12.5979 27.1327 13.0335 27.5648C13.0865 27.6281 13.1517 27.6799 13.2254 27.7173C13.299 27.7546 13.3794 27.7766 13.4618 27.7819C13.5442 27.7872 13.6268 27.7757 13.7046 27.7482C13.7824 27.7207 13.8538 27.6776 13.9145 27.6216C13.9752 27.5657 14.0239 27.498 14.0576 27.4227C14.0914 27.3473 14.1095 27.2659 14.1108 27.1834C14.1122 27.1008 14.0968 27.0189 14.0655 26.9425C14.0343 26.8661 13.9878 26.7968 13.929 26.7389C13.49 26.2743 13.0428 25.8271 12.5874 25.3973C12.448 25.2649 12.448 25.1847 12.5874 25.0488C13.0195 24.6307 13.4447 24.2021 13.8663 23.7735C13.9414 23.7226 14.0043 23.6558 14.0506 23.5779C14.0969 23.5 14.1255 23.4128 14.1343 23.3226C14.143 23.2323 14.1318 23.1413 14.1014 23.0559C14.071 22.9705 14.0221 22.8928 13.9583 22.8285C13.8944 22.7641 13.8172 22.7146 13.732 22.6835C13.6469 22.6524 13.5559 22.6404 13.4656 22.6485C13.3753 22.6565 13.2879 22.6844 13.2096 22.73C13.1313 22.7757 13.064 22.8381 13.0126 22.9127C12.5839 23.3379 12.1553 23.7595 11.7337 24.1916C11.6048 24.324 11.5246 24.3449 11.3852 24.1916C10.9531 23.7421 10.5071 23.31 10.068 22.8674C9.9872 22.775 9.88129 22.708 9.76315 22.6746C9.645 22.6412 9.5197 22.6428 9.40245 22.6793C9.29785 22.711 9.20379 22.7705 9.13022 22.8514C9.05665 22.9322 9.00632 23.0315 8.98453 23.1386C8.96275 23.2457 8.97034 23.3568 9.00649 23.4599C9.04263 23.5631 9.10601 23.6546 9.18989 23.7247C9.60805 24.1603 10.0332 24.5889 10.4722 25.0035C10.6465 25.1708 10.6848 25.2649 10.4722 25.4496C10.0367 25.8503 9.62895 26.2824 9.20731 26.7041C9.14209 26.7689 9.09034 26.846 9.05506 26.9309C9.01977 27.0158 9.00164 27.1069 9.00172 27.1989V27.1989Z" fill="#DC646F"/>
<path d="M9.17244 7.60853C8.91118 7.66433 8.66625 7.77945 8.45658 7.94501C8.24691 8.11057 8.07812 8.32213 7.96326 8.56333C7.87598 8.74738 7.83075 8.94854 7.83084 9.15224C7.83084 11.3034 7.83084 13.4535 7.83084 15.6023C7.82307 15.95 7.93317 16.29 8.14323 16.5672C8.35328 16.8443 8.65093 17.0422 8.98775 17.1286C9.01563 17.1286 9.03305 17.16 9.05744 17.1774C8.56611 17.1774 8.06432 17.2645 7.60434 16.9962C7.35589 16.868 7.14783 16.6735 7.00328 16.4342C6.85872 16.1949 6.78331 15.9202 6.78544 15.6407C6.78544 13.4802 6.78544 11.3197 6.78544 9.1592C6.7916 8.751 6.95531 8.36098 7.24236 8.07069C7.5294 7.7804 7.91756 7.61231 8.32566 7.60156C8.60792 7.59459 8.89018 7.60853 9.17244 7.60853Z" fill="#3E3C5E"/>
<path d="M9.06093 20.4461C8.77743 20.525 8.51981 20.6774 8.31419 20.8879C8.10857 21.0984 7.96226 21.3596 7.89009 21.6449C7.86027 21.768 7.84737 21.8946 7.85175 22.0212C7.85175 24.1399 7.87266 26.262 7.85175 28.3842C7.85175 29.0323 8.43369 29.8826 9.10275 29.9697C9.13901 29.9782 9.17331 29.9936 9.2038 30.015C8.67413 30.015 8.13401 30.1126 7.63919 29.8234C7.38576 29.6908 7.17444 29.4901 7.02912 29.2438C6.88379 28.9975 6.81025 28.7154 6.81681 28.4295C6.81681 26.2829 6.81681 24.1364 6.81681 21.9898C6.81578 21.5827 6.97421 21.1913 7.25818 20.8995C7.54215 20.6077 7.92909 20.4387 8.33612 20.4287C8.55566 20.4322 8.80655 20.4426 9.06093 20.4461Z" fill="#C44958"/>
<path d="M21.8497 20.446C21.4058 20.6013 21.034 20.9136 20.8043 21.3241C20.6714 21.6256 20.6083 21.9531 20.6197 22.2824C20.6057 24.2501 20.6057 26.2247 20.6197 28.2063C20.6197 28.9033 20.8218 29.5131 21.5048 29.8476C21.6511 29.9173 21.8044 29.9696 21.9543 30.0288C21.4037 30.0288 20.8427 30.1229 20.3444 29.7884C20.1286 29.6634 19.9488 29.4848 19.8224 29.2699C19.696 29.055 19.6273 28.811 19.623 28.5618C19.623 26.3455 19.623 24.1293 19.623 21.913C19.6386 21.5305 19.798 21.1679 20.0694 20.8979C20.3407 20.6278 20.704 20.4702 21.0866 20.4564C21.3445 20.4355 21.5989 20.446 21.8497 20.446Z" fill="#3E3C5E"/>
<path d="M21.9611 7.60894C21.7004 7.66368 21.4567 7.78025 21.2505 7.94884C21.0444 8.11742 20.8817 8.33309 20.7763 8.57767C20.6677 8.8791 20.6168 9.19829 20.6264 9.51853C20.6264 11.3828 20.6264 13.2471 20.6264 15.094C20.6264 16.0488 20.8948 16.8015 21.8565 17.1604C21.3861 17.1604 20.9052 17.244 20.4627 16.9896C20.2163 16.8699 20.0083 16.6838 19.8618 16.4524C19.7153 16.221 19.6362 15.9533 19.6333 15.6794C19.6333 13.4806 19.6333 11.2853 19.6333 9.08992C19.6473 8.69829 19.8101 8.32675 20.0885 8.05095C20.3669 7.77515 20.74 7.61584 21.1317 7.60545C21.4 7.595 21.6823 7.60894 21.9611 7.60894Z" fill="#C44958"/>
<path d="M24.4005 25.8294H21.6581C21.526 25.8411 21.3939 25.8064 21.2846 25.7314C21.1753 25.6564 21.0954 25.5457 21.0587 25.4183C21.0092 25.2956 21.0029 25.1598 21.0409 25.0331C21.0789 24.9064 21.1589 24.7964 21.2678 24.7213C21.4045 24.6271 21.569 24.5817 21.7347 24.5924C23.5119 24.5924 25.2926 24.5924 27.0698 24.5924C27.2361 24.5685 27.4051 24.6116 27.5397 24.7122C27.6743 24.8128 27.7635 24.9627 27.7876 25.129C27.8077 25.2697 27.7765 25.413 27.6997 25.5326C27.6229 25.6522 27.5057 25.7403 27.3694 25.7807C27.255 25.8052 27.138 25.8157 27.021 25.812L24.4005 25.8294Z" fill="#F5F8F6"/>
<path d="M11.5734 13.0136C10.6883 13.0136 9.80318 13.0136 8.91808 13.0136C8.37796 13.0136 8.07479 12.6338 8.24206 12.1877C8.27886 12.0703 8.35351 11.9683 8.45437 11.8977C8.55523 11.8271 8.67662 11.7918 8.7996 11.7975C10.6581 11.7975 12.5166 11.7975 14.3751 11.7975C14.4489 11.7942 14.5226 11.8056 14.5919 11.8311C14.6613 11.8566 14.7249 11.8956 14.779 11.9458C14.8331 11.9961 14.8768 12.0566 14.9073 12.1238C14.9379 12.1911 14.9548 12.2637 14.957 12.3376C14.9769 12.4895 14.9361 12.6431 14.8434 12.765C14.7508 12.887 14.6138 12.9676 14.4622 12.9892C14.3574 13.0067 14.2512 13.0137 14.1451 13.0101C13.2878 13.0264 12.4306 13.0275 11.5734 13.0136Z" fill="#F7F7F6"/>
<path d="M11.6083 9.58435C11.6862 9.58297 11.7636 9.59706 11.836 9.62582C11.9085 9.65458 11.9745 9.69743 12.0302 9.75188C12.086 9.80633 12.1304 9.87131 12.1608 9.94305C12.1913 10.0148 12.2072 10.0918 12.2076 10.1698C12.214 10.2535 12.203 10.3376 12.1753 10.4169C12.1476 10.4962 12.1038 10.5689 12.0468 10.6304C11.9897 10.692 11.9205 10.7411 11.8435 10.7747C11.7666 10.8083 11.6835 10.8257 11.5996 10.8257C11.5156 10.8257 11.4325 10.8083 11.3556 10.7747C11.2786 10.7411 11.2095 10.692 11.1524 10.6304C11.0953 10.5689 11.0515 10.4962 11.0238 10.4169C10.9962 10.3376 10.9851 10.2535 10.9915 10.1698C10.9928 10.0906 11.0099 10.0125 11.0418 9.94005C11.0737 9.86757 11.1196 9.80217 11.1771 9.74767C11.2345 9.69317 11.3022 9.65065 11.3762 9.62261C11.4503 9.59457 11.5292 9.58157 11.6083 9.58435V9.58435Z" fill="#F7F7F5"/>
<path d="M11.5943 14.0206C11.6748 14.0192 11.7548 14.0339 11.8295 14.0637C11.9043 14.0936 11.9724 14.138 12.0298 14.1944C12.0872 14.2509 12.1328 14.3182 12.164 14.3925C12.1951 14.4667 12.2111 14.5464 12.2111 14.6269C12.2111 14.7887 12.1468 14.9438 12.0325 15.0581C11.9181 15.1725 11.763 15.2367 11.6013 15.2367C11.4395 15.2367 11.2844 15.1725 11.1701 15.0581C11.0557 14.9438 10.9915 14.7887 10.9915 14.6269C10.9915 14.4667 11.0549 14.313 11.1678 14.1994C11.2808 14.0858 11.4341 14.0215 11.5943 14.0206V14.0206Z" fill="#F7F7F5"/>
<path d="M25.0138 14.2014C25.0138 14.5116 25.0138 14.8252 25.0138 15.1353C25.0217 15.218 25.012 15.3013 24.9853 15.3799C24.9585 15.4585 24.9154 15.5305 24.8587 15.5911C24.802 15.6517 24.7331 15.6996 24.6565 15.7316C24.5799 15.7636 24.4974 15.7789 24.4144 15.7765C24.3294 15.7805 24.2445 15.766 24.1655 15.7342C24.0865 15.7023 24.0153 15.6538 23.9568 15.592C23.8982 15.5301 23.8537 15.4564 23.8263 15.3758C23.7988 15.2952 23.789 15.2096 23.7977 15.1249C23.7837 14.5116 23.7837 13.8983 23.7977 13.285C23.7977 13.0515 23.728 12.9888 23.5015 12.9958C22.8986 12.9958 22.2958 12.9958 21.6929 12.9958C21.5601 13.0078 21.427 12.9758 21.3143 12.9046C21.2015 12.8334 21.1154 12.7271 21.0692 12.602C21.0205 12.4886 21.0091 12.3627 21.0367 12.2424C21.0642 12.1222 21.1293 12.0138 21.2225 11.9329C21.2888 11.876 21.3657 11.8328 21.4489 11.8058C21.5321 11.7789 21.6198 11.7688 21.7069 11.7761C22.3097 11.7761 22.9125 11.7761 23.5154 11.7761C23.7314 11.7761 23.8046 11.7239 23.7977 11.4973C23.7977 10.8945 23.7977 10.2917 23.7977 9.68881C23.7977 9.15566 24.2019 8.85946 24.6409 9.04066C24.7601 9.0874 24.861 9.17126 24.9288 9.27984C24.9966 9.38841 25.0276 9.51593 25.0173 9.64351C25.0173 10.2673 25.0173 10.891 25.0173 11.5113C25.0173 11.7204 25.087 11.7761 25.2856 11.7726C25.8884 11.7726 26.4913 11.7726 27.0976 11.7726C27.5297 11.7726 27.7946 12.0096 27.7946 12.3755C27.7946 12.7414 27.5193 12.9818 27.0976 12.9888C26.4948 12.9888 25.8919 12.9888 25.2891 12.9888C25.0905 12.9888 25.0068 13.0341 25.0173 13.2467C25.0243 13.5777 25.0138 13.8913 25.0138 14.2014Z" fill="#F3F7FA"/>
<path d="M9.00171 27.1989C9.00608 27.1036 9.02999 27.0102 9.07195 26.9244C9.11391 26.8387 9.17302 26.7625 9.24563 26.7006C9.66728 26.279 10.075 25.8469 10.5106 25.4461C10.7127 25.2614 10.6743 25.1674 10.5106 25.0001C10.0715 24.5854 9.64637 24.1568 9.22821 23.7212C9.14433 23.6511 9.08096 23.5596 9.04481 23.4565C9.00866 23.3533 9.00108 23.2423 9.02286 23.1352C9.04464 23.028 9.09498 22.9288 9.16855 22.8479C9.24212 22.7671 9.33618 22.7076 9.44077 22.6758C9.55802 22.6394 9.68333 22.6378 9.80147 22.6712C9.91962 22.7046 10.0255 22.7716 10.1063 22.864C10.5454 23.3066 10.9915 23.7387 11.4235 24.1882C11.5595 24.3345 11.6396 24.3136 11.772 24.1882C12.1937 23.7561 12.6223 23.3344 13.0509 22.9093C13.1023 22.8347 13.1696 22.7723 13.2479 22.7266C13.3262 22.6809 13.4136 22.6531 13.5039 22.645C13.5942 22.637 13.6852 22.6489 13.7704 22.68C13.8555 22.7111 13.9328 22.7606 13.9966 22.825C14.0605 22.8894 14.1093 22.967 14.1397 23.0524C14.1702 23.1378 14.1814 23.2289 14.1726 23.3191C14.1638 23.4093 14.1352 23.4965 14.0889 23.5745C14.0426 23.6524 13.9797 23.7192 13.9046 23.77C13.483 24.1986 13.0579 24.6272 12.6258 25.0454C12.4864 25.1813 12.4864 25.2614 12.6258 25.3939C13.0904 25.8329 13.5376 26.2801 13.9674 26.7355C14.0262 26.7934 14.0726 26.8626 14.1038 26.9391C14.1351 27.0155 14.1505 27.0974 14.1491 27.1799C14.1478 27.2625 14.1297 27.3439 14.0959 27.4192C14.0622 27.4945 14.0135 27.5622 13.9528 27.6182C13.8921 27.6742 13.8207 27.7172 13.7429 27.7448C13.6651 27.7723 13.5825 27.7838 13.5001 27.7785C13.4178 27.7731 13.3373 27.7511 13.2637 27.7138C13.1901 27.6765 13.1248 27.6246 13.0718 27.5613C12.6362 27.1292 12.2006 26.7006 11.7755 26.2581C11.6361 26.1152 11.556 26.1047 11.427 26.2581C10.9915 26.7146 10.5384 27.1571 10.0854 27.5997C10.0024 27.6987 9.88786 27.7662 9.76101 27.7909C9.63417 27.8156 9.50268 27.7961 9.38851 27.7356C9.27997 27.6917 9.18604 27.6181 9.1176 27.5231C9.04915 27.4281 9.00897 27.3158 9.00171 27.1989V27.1989Z" fill="#F7F7F7"/>
</svg>
